<svg xmlns="http://www.w3.org/2000/svg" viewBox="0 0 500 500"><g id="freepik--Floor--inject-203"><ellipse id="freepik--floor--inject-203" cx="250" cy="354.32" rx="220.44" ry="127.27" style="fill:#f5f5f5"></ellipse></g><g id="freepik--Shadows--inject-203"><ellipse id="freepik--Shadow--inject-203" cx="436.71" cy="330.47" rx="29.72" ry="17.16" style="fill:#e0e0e0"></ellipse><ellipse id="freepik--shadow--inject-203" cx="387.57" cy="317.63" rx="29.72" ry="17.16" style="fill:#e0e0e0"></ellipse><path id="freepik--shadow--inject-203" d="M135.41,435,41.2,380.69a1.36,1.36,0,0,1,0-2.58L228.82,269.27a4.94,4.94,0,0,1,4.46,0l94.22,54.31a1.36,1.36,0,0,1,0,2.58L139.88,435A4.93,4.93,0,0,1,135.41,435Z" style="fill:#e0e0e0"></path><ellipse id="freepik--shadow--inject-203" cx="312.09" cy="392.3" rx="62.8" ry="36.26" style="fill:#e0e0e0"></ellipse><ellipse id="freepik--shadow--inject-203" cx="116.24" cy="330.61" rx="56.05" ry="32.36" style="fill:#e0e0e0"></ellipse><path id="freepik--shadow--inject-203" d="M163.24,437.36l-12.5-7.21a1.38,1.38,0,0,1,0-2.62l72.11-41.63a5,5,0,0,1,4.53,0l12.5,7.22c1.25.72,1.25,1.89,0,2.62l-72.1,41.62A5,5,0,0,1,163.24,437.36Z" style="fill:#e0e0e0"></path></g><g id="freepik--Plants--inject-203"><g id="freepik--plants--inject-203"><path d="M445.3,315l-8.78-5.1s-3-19.13,0-35.66c4.22-23.24,20.29-30.91,26-28.46s6.91,9.39-3.82,22.62C452.35,276.23,445.6,293.37,445.3,315Z" style="fill:#37474f"></path><path d="M441.33,305.18h.07a.54.54,0,0,0,.46-.58c-2.52-21.9,6.82-45.62,16.9-55a.52.52,0,1,0-.71-.76c-10.27,9.58-19.78,33.68-17.23,55.91A.53.53,0,0,0,441.33,305.18Z" style="fill:#fff"></path><path d="M464.77,326.31c1.14.68,3.63-.53,4.55-1.12a11,11,0,0,0,3.76-4.12,10.36,10.36,0,0,0,1.06-6.17,23.64,23.64,0,0,0-.71-3.32c-.28-1.07-.56-2.14-.85-3.22a8.3,8.3,0,0,1-.39-3.23c.33-2.18,2.31-3.67,4.1-4.95,2-1.42,4.07-3.3,4.12-5.93a9.32,9.32,0,0,0-2.2-5.57c-1.22-1.62-2.68-3.07-3.78-4.78a6.44,6.44,0,0,1-1.23-4.12,6.71,6.71,0,0,1,.95-2.53,37.16,37.16,0,0,0,2.92-5.07c.68-1.82.64-4.12-.77-5.47a6,6,0,0,0-4.5-1.23c-2.78.12-5.48,2.08-7.7,3.62s-3.93,3.63-6.46,4.52c-3.32,1.18-7.73.5-9.93,3.88-1.91,2.93-.53,6.22-.34,9.34.3,5-4.42,6.89-6.74,10.52a6.63,6.63,0,0,0-.87,4,19.3,19.3,0,0,0,1.53,6.8A67,67,0,0,0,445,314.9C445.08,315,464.6,326.2,464.77,326.31Z" style="fill:#455a64"></path><path d="M453.14,319.89h0a.51.51,0,0,0,.51-.53c-.38-20.68,9.88-43.27,17.12-49.73a.52.52,0,1,0-.7-.78c-7.37,6.59-17.84,29.56-17.46,50.53A.52.52,0,0,0,453.14,319.89Z" style="fill:#fff"></path><path d="M456.8,295.55a.47.47,0,0,0,.16,0A69.68,69.68,0,0,1,472,293.46a.52.52,0,0,0,.51-.53.5.5,0,0,0-.53-.51,70.69,70.69,0,0,0-15.32,2.11.53.53,0,0,0-.36.64A.52.52,0,0,0,456.8,295.55Z" style="fill:#fff"></path></g></g><g id="freepik--Chair--inject-203"><g id="freepik--chair--inject-203"><path d="M78,343.21a5.8,5.8,0,0,0,.13,1.23,2.79,2.79,0,0,0,1.11,1.72l0,0a3.26,3.26,0,0,0,3.42-.26,10.4,10.4,0,0,0,4.7-8.14,3.33,3.33,0,0,0-1.33-3h0l-.23-.14h0a2.94,2.94,0,0,0-2-.08,5.42,5.42,0,0,0-1.15.51A10.34,10.34,0,0,0,78,343.21Z" style="fill:#455a64"></path><path d="M79.32,333.11a4.33,4.33,0,0,1,2.09-.63,2.51,2.51,0,0,1,1.33.37l.12.07,3,1.74a2.94,2.94,0,0,0-2-.08,5.42,5.42,0,0,0-1.15.51,10.34,10.34,0,0,0-4.7,8.12,5.8,5.8,0,0,0,.13,1.23,2.79,2.79,0,0,0,1.11,1.72l-3.11-1.8,0,0-.26-.16-.08-.05a3.46,3.46,0,0,1-1.15-2.89A10.39,10.39,0,0,1,79.32,333.11Z" style="fill:#263238"></path><path d="M128.87,315.88a5.8,5.8,0,0,0,.13,1.23,2.82,2.82,0,0,0,1.11,1.72l0,0a3.25,3.25,0,0,0,3.42-.27,10.37,10.37,0,0,0,4.7-8.14,3.31,3.31,0,0,0-1.33-3v0l-.22-.13h0a2.94,2.94,0,0,0-2-.08,5.2,5.2,0,0,0-1.15.51A10.34,10.34,0,0,0,128.87,315.88Z" style="fill:#455a64"></path><path d="M130.15,305.78a4.33,4.33,0,0,1,2.09-.63,2.51,2.51,0,0,1,1.33.37l.12.06,3,1.75a2.94,2.94,0,0,0-2-.08,5.2,5.2,0,0,0-1.15.51,10.34,10.34,0,0,0-4.7,8.12,5.8,5.8,0,0,0,.13,1.23,2.82,2.82,0,0,0,1.11,1.72L127,317l0,0-.27-.16-.08-.06a3.45,3.45,0,0,1-1.15-2.88A10.4,10.4,0,0,1,130.15,305.78Z" style="fill:#263238"></path><path d="M119.8,353.89a5.8,5.8,0,0,1-.13,1.23,2.85,2.85,0,0,1-1.11,1.72l0,0a3.24,3.24,0,0,1-3.42-.26,10.4,10.4,0,0,1-4.7-8.14,3.33,3.33,0,0,1,1.33-3h0l.23-.13h0a2.83,2.83,0,0,1,2-.08,4.72,4.72,0,0,1,1.15.5A10.34,10.34,0,0,1,119.8,353.89Z" style="fill:#455a64"></path><path d="M118.52,343.79a4.25,4.25,0,0,0-2.09-.64,2.51,2.51,0,0,0-1.33.37l-.12.07-3,1.75a2.83,2.83,0,0,1,2-.08,4.72,4.72,0,0,1,1.15.5,10.34,10.34,0,0,1,4.7,8.13,5.8,5.8,0,0,1-.13,1.23,2.85,2.85,0,0,1-1.11,1.72l3.11-1.8,0,0,.27-.16.07-.05a3.46,3.46,0,0,0,1.16-2.89A10.36,10.36,0,0,0,118.52,343.79Z" style="fill:#263238"></path><path d="M152.8,337.72a5.78,5.78,0,0,1-.14,1.23,2.85,2.85,0,0,1-1.11,1.73l0,0a3.24,3.24,0,0,1-3.41-.26,10.37,10.37,0,0,1-4.7-8.14,3.33,3.33,0,0,1,1.32-3h0l.22-.14h0a2.93,2.93,0,0,1,2-.08,5.42,5.42,0,0,1,1.15.51A10.36,10.36,0,0,1,152.8,337.72Z" style="fill:#455a64"></path><path d="M151.51,327.63a4.22,4.22,0,0,0-2.09-.64,2.45,2.45,0,0,0-1.32.37l-.12.07-3,1.74a2.93,2.93,0,0,1,2-.08,5.42,5.42,0,0,1,1.15.51,10.36,10.36,0,0,1,4.7,8.12,5.78,5.78,0,0,1-.14,1.23,2.85,2.85,0,0,1-1.11,1.73l3.11-1.8.05,0,.27-.16.08-.05a3.49,3.49,0,0,0,1.15-2.89A10.34,10.34,0,0,0,151.51,327.63Z" style="fill:#263238"></path><path d="M89,317.9a5.8,5.8,0,0,1-.13,1.23,2.83,2.83,0,0,1-1.12,1.72l0,0a3.23,3.23,0,0,1-3.41-.27,10.37,10.37,0,0,1-4.7-8.13,3.34,3.34,0,0,1,1.32-3v0l.23-.13h0a2.93,2.93,0,0,1,2-.08,5.42,5.42,0,0,1,1.15.51A10.36,10.36,0,0,1,89,317.9Z" style="fill:#455a64"></path><path d="M87.73,307.8a4.3,4.3,0,0,0-2.09-.63,2.45,2.45,0,0,0-1.32.37l-.12.06-3,1.75a2.93,2.93,0,0,1,2-.08,5.42,5.42,0,0,1,1.15.51A10.36,10.36,0,0,1,89,317.9a5.8,5.8,0,0,1-.13,1.23,2.83,2.83,0,0,1-1.12,1.72l3.11-1.8.06,0,.26-.16.08-.05a3.46,3.46,0,0,0,1.15-2.89A10.37,10.37,0,0,0,87.73,307.8Z" style="fill:#263238"></path><polygon points="117.07 307.97 133.84 303.16 133.84 306.74 117.07 316.42 117.07 307.97" style="fill:#ebebeb"></polygon><polygon points="117.07 307.97 115.41 306.96 132.24 302.36 133.84 303.16 117.07 307.97" style="fill:#f5f5f5"></polygon><polygon points="109.81 318.66 86.03 309.75 86.03 306.13 109.81 308.25 109.81 318.66" style="fill:#ebebeb"></polygon><polygon points="86.03 306.13 87.77 305.66 111.22 307.18 109.81 308.25 86.03 306.13" style="fill:#f5f5f5"></polygon><path d="M109.17,317.52c0,2.69,8.27,2.69,8.27,0V294h-8.27Z" style="fill:#fafafa"></path><path d="M115.37,311.4l4.55,29.53h-3.11l-4.25-29.53A5.14,5.14,0,0,0,115.37,311.4Z" style="fill:#f5f5f5"></path><polygon points="112.56 311.4 112.56 319.51 116.81 345.93 116.81 340.93 112.56 311.4" style="fill:#ebebeb"></polygon><rect x="116.81" y="340.93" width="3.11" height="5" style="fill:#e0e0e0"></rect><polygon points="111.14 319.27 80.47 335.34 80.47 330.39 111.14 311.42 111.14 319.27" style="fill:#ebebeb"></polygon><path d="M111.14,311.42a3.4,3.4,0,0,1-2-.89L78.56,329.1l1.91,1.29Z" style="fill:#f5f5f5"></path><polygon points="80.47 335.34 80.47 330.39 78.56 329.1 78.56 333.9 80.47 335.34" style="fill:#e0e0e0"></polygon><polygon points="149.81 329.66 117.04 318.45 117.04 311.09 149.81 324.71 149.81 329.66" style="fill:#ebebeb"></polygon><path d="M117,311.09c.27-.07.38-.55.4-1.27l33.33,14.5-1,.4Z" style="fill:#f5f5f5"></path><polygon points="150.77 324.31 150.77 329.11 149.81 329.66 149.81 324.71 150.77 324.31" style="fill:#e0e0e0"></polygon><rect x="116.81" y="340.93" width="3.11" height="5" style="opacity:0.1"></rect><polygon points="80.47 335.34 80.47 330.39 78.56 329.1 78.56 333.9 80.47 335.34" style="opacity:0.1"></polygon><polygon points="150.77 324.31 150.77 329.11 149.81 329.66 149.81 324.71 150.77 324.31" style="opacity:0.1"></polygon><path d="M120.31,253h-14v48.5c0,4,14,4,14,0Z" style="fill:#f0f0f0"></path><path d="M63.63,246.31l53.68-28s3.77-18.36-9-38.37c0,0,3.79-35.67-2.56-47.53-4.65-9.05-10.22-7.81-10.22-7.81l-61,27.52Z" style="fill:#37474f"></path><path d="M95.58,124.56l-61,27.52,2,6.51,66.67-30.1C99.36,123.73,95.58,124.56,95.58,124.56Z" style="fill:#455a64"></path><path d="M95.81,181.61c.13.95,1,1.3,1.83.79A2.88,2.88,0,0,0,99,179.77c-.13-1-1-1.3-1.83-.79A2.9,2.9,0,0,0,95.81,181.61Z" style="fill:#fff;opacity:0.4"></path><path d="M86.52,187c.13,1,.94,1.3,1.83.79a2.87,2.87,0,0,0,1.36-2.63c-.12-.95-.94-1.3-1.82-.79A2.84,2.84,0,0,0,86.52,187Z" style="fill:#fff;opacity:0.4"></path><path d="M77.22,192.35a1.12,1.12,0,0,0,1.83.79,2.89,2.89,0,0,0,1.37-2.64,1.12,1.12,0,0,0-1.83-.79A2.91,2.91,0,0,0,77.22,192.35Z" style="fill:#fff;opacity:0.4"></path><path d="M67.93,197.71c.13.95.94,1.3,1.83.79a2.86,2.86,0,0,0,1.36-2.63c-.12-1-.94-1.3-1.82-.79A2.86,2.86,0,0,0,67.93,197.71Z" style="fill:#fff;opacity:0.4"></path><path d="M178.65,241.14v3a10.69,10.69,0,0,1-5.22,8.64l-59.84,31.41a11.92,11.92,0,0,1-10.33-.21L68.74,264a11.31,11.31,0,0,1-5.11-8.85v-3a10.68,10.68,0,0,1,5.23-8.63L125.5,214a12.93,12.93,0,0,1,10.5-.09l37.38,18.7A10.45,10.45,0,0,1,178.65,241.14Z" style="fill:#37474f"></path><path d="M113.59,269.39,173.43,238c2.89-1.51,2.86-3.92-.05-5.38L136,213.9a12.93,12.93,0,0,0-10.5.09L68.86,243.58c-2.89,1.51-2.94,4-.12,5.68l34.51,19.92A11.91,11.91,0,0,0,113.59,269.39Z" style="fill:#455a64"></path><path d="M109.74,285.18a11.61,11.61,0,0,1-6.49-1.24L68.74,264a11.31,11.31,0,0,1-5.11-8.85v-3A10.79,10.79,0,0,1,68.12,244c-2.13,1.53-1.93,3.75.62,5.23l34.51,19.93a11,11,0,0,0,5.28,1.27Z" style="opacity:0.2"></path><path d="M95.58,124.56s8.82-6,18.13-.6,6.23,23.43,5.23,35.08-1.32,31.93,6.83,39.31,34.85-2.43,46.49-2.43L162,233.79c-11.32-6.17-29.44-12.5-44.68-15.52,0,0,.5-23.61-10.33-37.1,0,0,4-9.44,1.38-28.37C106,135.29,102.68,128.66,95.58,124.56Z" style="fill:#37474f"></path><g style="opacity:0.2"><path d="M95.58,124.56s8.82-6,18.13-.6,6.23,23.43,5.23,35.08-1.32,31.93,6.83,39.31,34.85-2.43,46.49-2.43L162,233.79c-11.32-6.17-29.44-12.5-44.68-15.52,0,0,.5-23.61-10.33-37.1,0,0,4-9.44,1.38-28.37C106,135.29,102.68,128.66,95.58,124.56Z"></path></g><path d="M162,233.79c-.52-3.38-2.67-22.88,1-31.36,3.17-7.38,11.46-7.81,14.07-4.65,2.48,3,.28,7-3.87,12.41-3.5,4.57-4.77,8.84-4.77,19.91Z" style="fill:#455a64"></path><path d="M162,233.79c-.52-3.38-2.67-22.88,1-31.36,3.17-7.38,11.46-7.81,14.07-4.65,2.48,3,.28,7-3.87,12.41-3.5,4.57-4.77,8.84-4.77,19.91Z" style="opacity:0.15"></path><path d="M61.41,262.9l41.45,20.81L102,268.44l6.39-3.68c-.46-11.84-3.7-24-12.08-26.68-10.48-3.31-24.07-4.38-32.23-11.76S56.23,198.65,57.22,187,61.29,157.3,52,151.93s-18.13.6-18.13.6c-4,2.58-8.59,4.45-8.2,7.58a3.37,3.37,0,0,0,2.83,3.19l23.12,87.53A18.94,18.94,0,0,0,61.41,262.9Z" style="fill:#263238"></path><path d="M45.9,162.72c3.72,4.46,5.64,11.53,5,28.92s-.41,31.39,6.39,39.91C65.31,241.65,93,249.7,93,249.7l10.8-4.94c-1.83-3.24-4.28-5.65-7.48-6.68-10.48-3.31-24.07-4.38-32.23-11.76S56.23,198.65,57.22,187,61.29,157.3,52,151.93s-18.13.6-18.13.6c-4,2.58-8.59,4.45-8.2,7.58a3.37,3.37,0,0,0,2.83,3.19C33.67,161.6,42.18,158.27,45.9,162.72Z" style="fill:#37474f"></path><g style="opacity:0.2"><path d="M45.9,162.72c3.72,4.46,5.64,11.53,5,28.92s-.41,31.39,6.39,39.91C65.31,241.65,93,249.7,93,249.7l10.8-4.94c-1.83-3.24-4.28-5.65-7.48-6.68-10.48-3.31-24.07-4.38-32.23-11.76S56.23,198.65,57.22,187,61.29,157.3,52,151.93s-18.13.6-18.13.6c-4,2.58-8.59,4.45-8.2,7.58a3.37,3.37,0,0,0,2.83,3.19C33.67,161.6,42.18,158.27,45.9,162.72Z"></path></g><path d="M102,268.44l6.39-3.68c0-7.09-1.82-22.49-10.79-26.21-7.12-3-10.55,1.39-10.47,4.07.08,3,2.26,5,5.86,7.08C97.73,252.45,102,257.38,102,268.44Z" style="fill:#455a64"></path><path d="M102,268.44l6.39-3.68c0-7.09-1.82-22.49-10.79-26.21-7.12-3-10.55,1.39-10.47,4.07.08,3,2.26,5,5.86,7.08C97.73,252.45,102,257.38,102,268.44Z" style="opacity:0.15"></path></g></g><g id="freepik--Desk--inject-203"><g id="freepik--desk--inject-203"><g id="freepik--desk--inject-203"><polygon points="138.09 314.62 51.51 264.76 219.91 167.56 306.49 217.43 138.09 314.62" style="fill:#0064FA"></polygon><polygon points="138.09 314.62 51.51 264.76 219.91 167.56 306.49 217.43 138.09 314.62" style="opacity:0.2"></polygon><polygon points="51.51 264.76 51.51 379.45 56.73 382.47 56.73 297.82 132.86 341.65 132.86 426.3 138.09 429.31 138.09 314.62 51.51 264.76" style="fill:#0064FA"></polygon><polygon points="51.51 264.76 51.51 379.45 56.73 382.47 56.73 297.82 132.86 341.65 132.86 426.3 138.09 429.31 138.09 314.62 51.51 264.76" style="opacity:0.4"></polygon><polygon points="56.73 382.47 61.96 379.45 61.96 300.84 56.73 297.82 56.73 382.47" style="fill:#0064FA"></polygon><polygon points="56.73 382.47 61.96 379.45 61.96 300.84 56.73 297.82 56.73 382.47" style="opacity:0.5"></polygon><polygon points="138.09 429.31 143.32 426.3 143.32 341.65 301.26 250.5 301.26 335.14 306.49 332.12 306.49 217.43 138.09 314.62 138.09 429.31" style="fill:#0064FA"></polygon><polygon points="138.09 429.31 143.32 426.3 143.32 341.65 301.26 250.5 301.26 335.14 306.49 332.12 306.49 217.43 138.09 314.62 138.09 429.31" style="opacity:0.30000000000000004"></polygon><polygon points="301.26 335.14 296.04 332.12 296.04 253.51 301.26 250.5 301.26 335.14" style="fill:#0064FA"></polygon><g style="opacity:0.5"><polygon points="301.26 335.14 296.04 332.12 296.04 253.51 301.26 250.5 301.26 335.14"></polygon></g></g><g id="freepik--Sheets--inject-203"><g style="opacity:0.2"><path d="M202.27,211.13l38.46,22.21a2.37,2.37,0,0,0,2.17,0L271.21,217c.6-.35.6-.91,0-1.25l-38.47-22.21a2.37,2.37,0,0,0-2.17,0l-28.3,16.34C201.67,210.23,201.67,210.79,202.27,211.13Z"></path></g><path d="M202.27,209.13l38.46,22.21a2.44,2.44,0,0,0,2.17,0L271.21,215c.6-.34.6-.9,0-1.25l-38.47-22.21a2.44,2.44,0,0,0-2.17,0l-28.3,16.35C201.67,208.22,201.67,208.78,202.27,209.13Z" style="fill:#ebebeb"></path><path d="M230.57,191.53l-26.88,15.52,37,21.39a2.44,2.44,0,0,0,2.17,0l26.88-15.52-37-21.39A2.44,2.44,0,0,0,230.57,191.53Z" style="fill:#e0e0e0"></path><path d="M202.27,205.22l38.46,22.21a2.44,2.44,0,0,0,2.17,0l28.31-16.35c.6-.34.6-.9,0-1.25l-38.47-22.21a2.44,2.44,0,0,0-2.17,0L202.27,204C201.67,204.31,201.67,204.87,202.27,205.22Z" style="fill:#fafafa"></path></g><g id="freepik--Pen--inject-203"><path d="M80.56,262.2l28.51,16.47,4.87,1a.14.14,0,0,0,.16-.21l-1.52-2.8L84.06,260.17C83.1,259.62,79.81,261.76,80.56,262.2Z" style="opacity:0.2"></path><g id="freepik--pen--inject-203"><path d="M83.7,257.42l.14.05-.27-.16,0,0h0l-.06,0h-.23a1.21,1.21,0,0,0-.59.18,2.89,2.89,0,0,0-1.3,2.26,1.69,1.69,0,0,0,0,.33s0,0,0,.06a0,0,0,0,0,0,0,.14.14,0,0,0,0,.06.78.78,0,0,0,.11.2l0,0h0a.08.08,0,0,1,0,0l.06.05,0,0h0l.31.18-.14-.11a1,1,0,0,0,.75-.16,2.87,2.87,0,0,0,1.31-2.26A1.06,1.06,0,0,0,83.7,257.42Zm-1.93,3.12h0Z" style="fill:#0064FA"></path><path d="M111.07,273.19l-1.84,3.2-.31-.18L82,260.69l-.14-.11a1.06,1.06,0,0,1-.24-.74A2.9,2.9,0,0,1,83,257.58a1.21,1.21,0,0,1,.58-.18l.17,0,.14.05h0Z" style="fill:#f0f0f0"></path><path d="M110.15,273.28c.72-.41,1.3-.08,1.3.76a2.89,2.89,0,0,1-1.3,2.26c-.72.42-1.31.08-1.31-.76A2.9,2.9,0,0,1,110.15,273.28Z" style="fill:#0064FA"></path><path d="M113,275.22l0,0-1.66-1.84h0v0l0,0,0,0h0a.86.86,0,0,0-1,0,2.9,2.9,0,0,0-1.31,2.26.85.85,0,0,0,.51.9h0l.1,0h0l2.41.53a.57.57,0,0,0,.42-.09,1.64,1.64,0,0,0,.75-1.29A.66.66,0,0,0,113,275.22Z" style="fill:#e0e0e0"></path><path d="M91.6,263.33h0l0,0a.31.31,0,0,0-.3,0,1,1,0,0,0-.47.81.35.35,0,0,0,.11.28h0l.06,0,19.85,11.46,1.31-.75Z" style="fill:#455a64"></path><path d="M109,274.86l1.84,1.06,1.31-.75-2.5-1.44A3,3,0,0,0,109,274.86Z" style="fill:#37474f"></path><path d="M113.61,276.09h0l-1.51-1.66,0,0a.58.58,0,0,0-.74,0,2,2,0,0,0-.93,1.6.59.59,0,0,0,.36.63h.07l2.22.48h0a.32.32,0,0,0,.24-.05.93.93,0,0,0,.42-.73A.37.37,0,0,0,113.61,276.09Z" style="fill:#0064FA"></path><path d="M113.61,276.09h0l-1.51-1.66,0,0a.58.58,0,0,0-.74,0,2,2,0,0,0-.93,1.6.59.59,0,0,0,.36.63h.07l2.22.48h0a.32.32,0,0,0,.24-.05.93.93,0,0,0,.42-.73A.37.37,0,0,0,113.61,276.09Z" style="opacity:0.1"></path><path d="M113.7,276.33a.93.93,0,0,1-.42.73.32.32,0,0,1-.24.05h0l-1.12-.24c-.18,0-.3-.2-.3-.47a1.51,1.51,0,0,1,.68-1.17.43.43,0,0,1,.53,0l0,0,.75.82h0A.31.31,0,0,1,113.7,276.33Z" style="fill:#0064FA"></path><ellipse cx="113.28" cy="276.58" rx="0.59" ry="0.34" transform="translate(-182.88 236.39) rotate(-60)" style="opacity:0.1"></ellipse><path d="M86.66,260.47a.32.32,0,0,0-.33,0,1,1,0,0,0-.46.8.31.31,0,0,0,.14.3h0l4.88,2.82a.35.35,0,0,1-.11-.28,1,1,0,0,1,.47-.81.31.31,0,0,1,.3,0Z" style="fill:#fafafa"></path><path d="M86.8,260.77a1,1,0,0,1-.47.8.32.32,0,0,1-.32,0,.31.31,0,0,1-.14-.3,1,1,0,0,1,.46-.8.32.32,0,0,1,.33,0A.35.35,0,0,1,86.8,260.77Z" style="fill:#f5f5f5"></path><path d="M85.76,258.79h0l-1.93-1.11,0,0h0a.84.84,0,0,0-.79.1,2.6,2.6,0,0,0-1.18,2,.83.83,0,0,0,.35.76h0l1.95,1.12h0a.86.86,0,0,0,.82-.09,2.61,2.61,0,0,0,1.17-2A.85.85,0,0,0,85.76,258.79Z" style="fill:#0064FA"></path><path d="M85.76,258.79h0l-1.93-1.11,0,0h0a.84.84,0,0,0-.79.1,2.6,2.6,0,0,0-1.18,2,.83.83,0,0,0,.35.76h0l1.95,1.12h0a.86.86,0,0,0,.82-.09,2.61,2.61,0,0,0,1.17-2A.85.85,0,0,0,85.76,258.79Z" style="opacity:0.05"></path><path d="M84.91,258.86c.65-.37,1.17-.07,1.17.68a2.61,2.61,0,0,1-1.17,2c-.65.37-1.18.07-1.18-.68A2.62,2.62,0,0,1,84.91,258.86Z" style="opacity:0.1"></path><path d="M114.23,276.79h0l-.8-.47h0a.12.12,0,0,0-.15,0,.47.47,0,0,0-.22.37.17.17,0,0,0,.06.14h0l.8.48h0a.24.24,0,0,0,.15,0,.31.31,0,0,0,.16-.57Z" style="fill:#455a64"></path><path d="M114.28,276.83h0l0,0h0a.19.19,0,0,0-.14,0,.46.46,0,0,0-.21.37c0,.07,0,.12.06.14h0a.16.16,0,0,0,.1,0,.3.3,0,0,0,.3-.31A.29.29,0,0,0,114.28,276.83Z" style="fill:#263238"></path></g></g><path id="freepik--shadow--inject-203" d="M156.75,287.57,223,249.34a2.88,2.88,0,0,1,2.62,0l2.3,1.32a.8.8,0,0,1,0,1.52l-66.23,38.23a2.88,2.88,0,0,1-2.62,0l-2.3-1.32A.8.8,0,0,1,156.75,287.57Z" style="opacity:0.2"></path><g id="freepik--shadow--inject-203" style="opacity:0.2"><path d="M101.14,253.5l16.59,9.56a2.5,2.5,0,0,0,2.23,0l65.74-37.95a.68.68,0,0,0,0-1.29l-16.6-9.56a2.44,2.44,0,0,0-2.23,0l-65.73,38C100.52,252.56,100.52,253.14,101.14,253.5Z"></path></g><g id="freepik--Device--inject-203"><path d="M103.1,251.07v-.44a2.48,2.48,0,0,1,1.11-1.93L170,210.75a2.44,2.44,0,0,1,2.23,0l13.45,7.77a2.44,2.44,0,0,1,1.11,1.93v.44a2.44,2.44,0,0,1-1.11,1.93L119.9,260.77a2.44,2.44,0,0,1-2.23,0L104.21,253A2.47,2.47,0,0,1,103.1,251.07Z" style="fill:#0064FA"></path><g style="opacity:0.5"><path d="M103.1,251.07v-.44a2.48,2.48,0,0,1,1.11-1.93L170,210.75a2.44,2.44,0,0,1,2.23,0l13.45,7.77a2.44,2.44,0,0,1,1.11,1.93v.44a2.44,2.44,0,0,1-1.11,1.93L119.9,260.77a2.44,2.44,0,0,1-2.23,0L104.21,253A2.47,2.47,0,0,1,103.1,251.07Z" style="fill:#fff"></path></g><path d="M104.21,250l13.46,7.76a2.44,2.44,0,0,0,2.23,0l65.73-37.94c.62-.36.62-.94,0-1.29l-13.45-7.77a2.44,2.44,0,0,0-2.23,0L104.21,248.7A.68.68,0,0,0,104.21,250Z" style="fill:#0064FA"></path><g style="opacity:0.8"><path d="M104.21,250l13.46,7.76a2.44,2.44,0,0,0,2.23,0l65.73-37.94c.62-.36.62-.94,0-1.29l-13.45-7.77a2.44,2.44,0,0,0-2.23,0L104.21,248.7A.68.68,0,0,0,104.21,250Z" style="fill:#fff"></path></g><path d="M223.5,236.79l4.75-57.65a5.42,5.42,0,0,0-2.37-4.77,6,6,0,0,0-5.47.1l-63.13,36.45a7,7,0,0,0-3.09,4.87l-4.76,57.65a5.47,5.47,0,0,0,2.38,4.78,6.1,6.1,0,0,0,5.47-.1l63.13-36.46A6.94,6.94,0,0,0,223.5,236.79Z" style="fill:#0064FA"></path><path d="M223.5,236.79l4.75-57.65a5.42,5.42,0,0,0-2.37-4.77,6,6,0,0,0-5.47.1l-63.13,36.45a7,7,0,0,0-3.09,4.87l-4.76,57.65a5.47,5.47,0,0,0,2.38,4.78,6.1,6.1,0,0,0,5.47-.1l63.13-36.46A6.94,6.94,0,0,0,223.5,236.79Z" style="fill:#fff;opacity:0.5"></path><path d="M223.5,236.79l4.75-57.65a5.42,5.42,0,0,0-2.37-4.77,6,6,0,0,0-5.47.1l-63.13,36.45a6.36,6.36,0,0,0-2.06,2.07l9.82,5.67v55l55.37-32A6.94,6.94,0,0,0,223.5,236.79Z" style="fill:#0064FA"></path><path d="M223.5,236.79l4.75-57.65a5.42,5.42,0,0,0-2.37-4.77,6,6,0,0,0-5.47.1l-63.13,36.45a6.36,6.36,0,0,0-2.06,2.07l9.82,5.67v55l55.37-32A6.94,6.94,0,0,0,223.5,236.79Z" style="fill:#fff;opacity:0.8"></path><path d="M154.72,276.5l4.76-57.65a7,7,0,0,1,3.09-4.88l63.13-36.45c1.56-.9,2.7-.17,2.55,1.62l-4.75,57.65a6.94,6.94,0,0,1-3.09,4.87l-63.13,36.46C155.72,279,154.58,278.29,154.72,276.5Z" style="fill:#0064FA"></path><path d="M154.72,276.5l4.76-57.65a7,7,0,0,1,3.09-4.88l63.13-36.45c1.56-.9,2.7-.17,2.55,1.62l-4.75,57.65a6.94,6.94,0,0,1-3.09,4.87l-63.13,36.46C155.72,279,154.58,278.29,154.72,276.5Z" style="fill:#fff;opacity:0.65"></path><path d="M187.31,230.24a11,11,0,0,1,4.62-7.77c2.31-1.33,4,0,3.74,2.93s-2.31,6.43-4.62,7.76S187.07,233.19,187.31,230.24Z" style="fill:#0064FA"></path><polygon points="188.79 247.67 204.32 238.65 201.67 237.13 186.16 246.15 188.79 247.67" style="fill:#0064FA"></polygon><g style="opacity:0.85"><polygon points="188.79 247.67 204.32 238.65 201.67 237.13 186.16 246.15 188.79 247.67" style="fill:#fff"></polygon></g><path d="M211.52,265.12,192.62,276a2.23,2.23,0,0,1-1.21.27,2.27,2.27,0,0,1-1-.26h0l-8.32-4.8s0,0,0,0a2.45,2.45,0,0,1-1.08-1.93v-.44c0-.72.49-1,1.12-.65l5,2.89,1.12.65-.25-1.28-1.77-24.29,2.63,1.53,15.53-9,8.08,24.53A2,2,0,0,1,211.52,265.12Z" style="fill:#0064FA"></path><g style="opacity:0.5"><path d="M211.52,265.12,192.62,276a2.23,2.23,0,0,1-1.21.27,2.27,2.27,0,0,1-1-.26h0l-8.32-4.8s0,0,0,0a2.45,2.45,0,0,1-1.08-1.93v-.44c0-.72.49-1,1.12-.65l5,2.89,1.12.65-.25-1.28-1.77-24.29,2.63,1.53,15.53-9,8.08,24.53A2,2,0,0,1,211.52,265.12Z" style="fill:#fff"></path></g><polygon points="181.26 268.09 187.7 264.37 189.01 273.04 181.26 268.09" style="fill:#0064FA"></polygon><g style="opacity:0.25"><polygon points="181.26 268.09 187.7 264.37 189.01 273.04 181.26 268.09"></polygon></g><path d="M188.79,247.68l-2.63-1.53,1.77,24.29c.14.71-.26,1-.87.63l-5-2.89c-.63-.37-1.12-.07-1.12.65v.44A2.45,2.45,0,0,0,182,271.2s0,0,0,0l8.32,4.8h0a2.27,2.27,0,0,0,1,.26Z" style="fill:#0064FA"></path><g style="opacity:0.25"><path d="M188.79,247.68l-2.63-1.53,1.77,24.29c.14.71-.26,1-.87.63l-5-2.89c-.63-.37-1.12-.07-1.12.65v.44A2.45,2.45,0,0,0,182,271.2s0,0,0,0l8.32,4.8h0a2.27,2.27,0,0,0,1,.26Z" style="fill:#fff"></path></g></g><g id="freepik--shadow--inject-203" style="opacity:0.2"><path d="M146.22,294.71c4.49,2.59,4.49,6.8,0,9.39s-11.77,2.59-16.26,0-4.49-6.8,0-9.39S141.73,292.12,146.22,294.71Z"></path></g><g id="freepik--Pot--inject-203"><path d="M144.91,299.91c3.63-3.7,5.76-12.94,2.22-15.88h-18c-3.54,2.94-1.41,12.17,2.21,15.87l.1.1.13.13c.1.1.21.19.33.29l.08.07a2.83,2.83,0,0,0,.28.2,4.66,4.66,0,0,0,.47.3,12,12,0,0,0,10.8,0h0c.16-.09.31-.19.47-.3l.25-.19.11-.09c.11-.09.22-.18.32-.28l.14-.14Z" style="fill:#ebebeb"></path><path d="M130.7,282.85c-4.1,2.37-4.1,6.21,0,8.59a16.44,16.44,0,0,0,14.87,0c4.11-2.38,4.11-6.22,0-8.59A16.44,16.44,0,0,0,130.7,282.85Z" style="fill:#fafafa"></path><path d="M133.61,284.53c-2.5,1.44-2.5,3.78,0,5.22a10,10,0,0,0,9,0c2.5-1.44,2.5-3.78,0-5.22A10,10,0,0,0,133.61,284.53Z" style="fill:#ebebeb"></path><path d="M142.66,287a10,10,0,0,0-9,0,4.17,4.17,0,0,0-1.49,1.37,4.17,4.17,0,0,0,1.49,1.37,10,10,0,0,0,9,0,4.2,4.2,0,0,0,1.5-1.37A4.2,4.2,0,0,0,142.66,287Z" style="fill:#e0e0e0"></path><path d="M139.77,289a13.4,13.4,0,0,0,5.57-7c1.65-4.85.68-10.71-.81-13.13-2-3.29-6.9-2.92-5.45,2.57s2.34,11.43.06,15.41Z" style="fill:#0064FA"></path><g style="opacity:0.35000000000000003"><path d="M139.77,289a13.4,13.4,0,0,0,5.57-7c1.65-4.85.68-10.71-.81-13.13-2-3.29-6.9-2.92-5.45,2.57s2.34,11.43.06,15.41Z"></path></g><path d="M139.94,288a.2.2,0,0,1-.15-.06.22.22,0,0,1,0-.31,16,16,0,0,0,4.1-11.94c-.25-4-1.73-6.84-2.28-7.31a.22.22,0,0,1,0-.31.21.21,0,0,1,.31,0c.74.63,2.18,3.73,2.43,7.62a16.43,16.43,0,0,1-4.21,12.25A.21.21,0,0,1,139.94,288Z" style="fill:#fafafa"></path><path d="M135.57,289a2.08,2.08,0,0,0-.89-1.17,8.53,8.53,0,0,0-1.61-.7c-1-.35-2.21-.86-2.34-2a3.44,3.44,0,0,1,.15-1.23,2.66,2.66,0,0,0,.17-1.7c-.21-.52-.77-.8-1.24-1.11a4,4,0,0,1-1.3-1.23,2.5,2.5,0,0,1-.38-1.5c.09-1.09,1.13-1.8,1.16-2.88,0-1.57-3.63-3.71-1.67-5.19,2.51-1.9,6.44.3,7.57,1.92s1.12,2.33,3.18,3.7c1.7,1.14,3.71,1.37,3.71,3.6s-2.87,2.34-.61,4.88c1.36,1.52-.88,2.83-1.7,4.64A3.72,3.72,0,0,1,135.57,289Z" style="fill:#0064FA"></path><path d="M137.84,289.6h0a.23.23,0,0,1-.21-.23c.5-13-6.12-17.56-7.44-17.92a.21.21,0,0,1-.15-.27.23.23,0,0,1,.27-.16c2.24.61,8.23,6.1,7.76,18.36A.22.22,0,0,1,137.84,289.6Z" style="fill:#fafafa"></path><path d="M136.56,279.91a.2.2,0,0,1-.15-.05c-1.92-1.7-5.67-1.65-5.71-1.65a.22.22,0,0,1,0-.44c.16,0,4,0,6,1.76a.22.22,0,0,1,0,.31A.2.2,0,0,1,136.56,279.91Z" style="fill:#fafafa"></path></g></g></g><g id="freepik--Coins--inject-203"><g id="freepik--coins--inject-203"><path d="M415,309.29a17.57,17.57,0,0,0-6.55-6.06c-10.72-6.19-28.09-6.19-38.8,0a17.57,17.57,0,0,0-6.55,6.06h-1.49v5.6h0c.2,3.9,2.87,7.76,8,10.74,10.71,6.18,28.08,6.18,38.8,0,5.15-3,7.83-6.84,8-10.74h0v-5.6Z" style="fill:#0064FA"></path><g style="opacity:0.25"><path d="M415,309.29a17.57,17.57,0,0,0-6.55-6.06c-10.72-6.19-28.09-6.19-38.8,0a17.57,17.57,0,0,0-6.55,6.06h-1.49v5.6h0c.2,3.9,2.87,7.76,8,10.74,10.71,6.18,28.08,6.18,38.8,0,5.15-3,7.83-6.84,8-10.74h0v-5.6Z"></path></g><path d="M389.05,298.59c-7,0-14,1.54-19.4,4.64a17.57,17.57,0,0,0-6.55,6.06h-1.49v5.6h0c.2,3.9,2.87,7.76,8,10.74,5.36,3.09,12.38,4.64,19.4,4.64Z" style="opacity:0.1"></path><path d="M374.06,301.16a30.26,30.26,0,0,0-4.41,2.07,17.57,17.57,0,0,0-6.55,6.06h-1.49v5.6h0c.2,3.9,2.87,7.76,8,10.74a29.22,29.22,0,0,0,4.41,2.06Z" style="opacity:0.1"></path><path d="M404,301.16a30.88,30.88,0,0,1,4.42,2.07,17.57,17.57,0,0,1,6.55,6.06h1.48v5.6h0c-.2,3.9-2.88,7.76-8,10.74A30.88,30.88,0,0,1,404,327.7Z" style="fill:#0064FA;opacity:0.5"></path><path d="M408.45,298.09c-10.72-6.19-28.09-6.19-38.8,0s-10.72,16.21,0,22.4,28.08,6.19,38.8,0S419.16,304.28,408.45,298.09Z" style="fill:#0064FA"></path><path d="M408.45,298.09c-10.72-6.19-28.09-6.19-38.8,0s-10.72,16.21,0,22.4,28.08,6.19,38.8,0S419.16,304.28,408.45,298.09Z" style="opacity:0.2"></path><path d="M401.68,302.19a30.89,30.89,0,0,0-25.26,0c-3.6,1.84-5.57,4.36-5.57,7.1s2,5.26,5.57,7.1a30.89,30.89,0,0,0,25.26,0c3.59-1.84,5.57-4.36,5.57-7.1S405.27,304,401.68,302.19Z" style="fill:#0064FA"></path><path d="M401.68,302.19a30.89,30.89,0,0,0-25.26,0c-3.6,1.84-5.57,4.36-5.57,7.1s2,5.26,5.57,7.1a30.89,30.89,0,0,0,25.26,0c3.59-1.84,5.57-4.36,5.57-7.1S405.27,304,401.68,302.19Z" style="opacity:0.4"></path><path d="M407.85,299.13c-5-2.89-11.68-4.49-18.8-4.49s-13.8,1.6-18.8,4.49c-4.8,2.77-7.44,6.37-7.44,10.16s2.64,7.4,7.44,10.17c5,2.88,11.67,4.48,18.8,4.48s13.8-1.6,18.8-4.48c4.79-2.77,7.44-6.38,7.44-10.17S412.64,301.9,407.85,299.13Zm-6.17,17.26a30.89,30.89,0,0,1-25.26,0c-3.6-1.84-5.57-4.36-5.57-7.1s2-5.26,5.57-7.1a30.89,30.89,0,0,1,25.26,0c3.59,1.84,5.57,4.36,5.57,7.1S405.27,314.55,401.68,316.39Z" style="fill:#0064FA"></path><ellipse cx="389.05" cy="309.29" rx="17.25" ry="8.85" style="opacity:0.2"></ellipse><ellipse cx="389.05" cy="309.29" rx="17.25" ry="8.85" style="fill:#0064FA"></ellipse><ellipse cx="389.05" cy="309.29" rx="17.25" ry="8.85" style="opacity:0.6000000000000001"></ellipse><path d="M401.25,305.37c-6.74-3.45-17.67-3.45-24.4,0-2.79,1.43-4.42,3.23-4.9,5.09.48,1.86,2.11,3.66,4.9,5.09,6.74,3.46,17.66,3.46,24.4,0,2.78-1.43,4.42-3.23,4.9-5.09C405.67,308.6,404,306.8,401.25,305.37Z" style="fill:#0064FA"></path><path d="M401.25,305.37c-6.74-3.45-17.67-3.45-24.4,0-2.79,1.43-4.42,3.23-4.9,5.09.48,1.86,2.11,3.66,4.9,5.09,6.74,3.46,17.66,3.46,24.4,0,2.78-1.43,4.42-3.23,4.9-5.09C405.67,308.6,404,306.8,401.25,305.37Z" style="opacity:0.5"></path><polygon points="390.68 303.16 390.68 305.69 389.82 306.61 388.22 308.28 388.22 305.64 390.68 303.16" style="fill:#0064FA"></polygon><polygon points="390.68 303.16 390.68 305.69 389.82 306.61 388.22 308.28 388.22 305.64 390.68 303.16" style="opacity:0.30000000000000004"></polygon><path d="M388.22,305.64v1.5a14.33,14.33,0,0,1-2.46.69,2.34,2.34,0,0,1-1.55-.24c-.61-.37-.71-.91.45-1.57A4.06,4.06,0,0,1,388.22,305.64Z" style="fill:#0064FA"></path><path d="M388.22,305.64v1.5a14.33,14.33,0,0,1-2.46.69,2.34,2.34,0,0,1-1.55-.24c-.61-.37-.71-.91.45-1.57A4.06,4.06,0,0,1,388.22,305.64Z" style="opacity:0.45"></path><path d="M399.67,312.83V315l-2.76,1.6-2.05-1.19a10.4,10.4,0,0,1-7.93.36V313.6l1.26-1.25-1.26.35a8.12,8.12,0,0,1-6.17-.71c-1.24-.72-1.82-1.5-1.81-2.31v-2.12l.22-.93-.75-.44V304l2,1.19a3.12,3.12,0,0,0-1.51,2.34v0c0,.78.6,1.55,1.81,2.25,2.69,1.55,5.36,1,7.8.25,2.27-.74,3.93-1.61,5.24-.85.81.47.56,1-.35,1.57a4.52,4.52,0,0,1-3.9.22l-2.62,2.6a10.27,10.27,0,0,0,1.45.42,10.82,10.82,0,0,0,6.48-.78l2.05,1.18Z" style="fill:#0064FA"></path><path d="M379,307.53v0c0,.78.6,1.55,1.81,2.25,2.69,1.55,5.36,1,7.8.25,2.27-.74,3.93-1.61,5.24-.85.81.47.56,1-.35,1.57a4.52,4.52,0,0,1-3.9.22l-2.62,2.6a10.27,10.27,0,0,0,1.45.42,10.82,10.82,0,0,0,6.48-.78l2.05,1.18,2.76-1.59V315l-2.76,1.6-2.05-1.19a10.4,10.4,0,0,1-7.93.36V313.6l1.26-1.25-1.26.35a8.12,8.12,0,0,1-6.17-.71c-1.24-.72-1.82-1.5-1.81-2.31v-2.12l.22-.93" style="opacity:0.35000000000000003"></path><path d="M378.42,304v2.19l.75.44h0a4.35,4.35,0,0,1,1.29-1.45Z" style="opacity:0.45"></path><path d="M399.21,311.4a2.5,2.5,0,0,1-.2,1l-1.39-.79a2.71,2.71,0,0,0,1.57-2.11C399.2,310.14,399.21,311.34,399.21,311.4Z" style="fill:#0064FA"></path><g style="opacity:0.30000000000000004"><path d="M399.21,311.4a2.5,2.5,0,0,1-.2,1l-1.39-.79a2.71,2.71,0,0,0,1.57-2.11C399.2,310.14,399.21,311.34,399.21,311.4Z"></path></g><path d="M399.21,312.56l-1.58-.92a2.69,2.69,0,0,0,1.58-2.42c0-.08,0-.15,0-.22a3,3,0,0,0-1.77-2.14h0a7.26,7.26,0,0,0-3.68-1h-.35l-.33,0-.29,0h-.12a1.66,1.66,0,0,0-.22,0,14.94,14.94,0,0,0-1.79.37c-.28.07-.56.16-.83.24l-1.16.38-.44.15a12.8,12.8,0,0,1-2.45.7,2.47,2.47,0,0,1-1.06,0,2.65,2.65,0,0,1-.49-.2c-.62-.36-.72-.9.44-1.57a4.06,4.06,0,0,1,3.56-.38l2.46-2.48a10.62,10.62,0,0,0-7.42.41l-2.05-1.17L378.42,304l2.05,1.18a3.18,3.18,0,0,0-1.53,2.35v0c0,.79.61,1.55,1.82,2.25,2.7,1.55,5.36,1,7.8.25,2.27-.74,3.92-1.61,5.23-.86.82.48.57,1.05-.34,1.57a4.49,4.49,0,0,1-3.9.23l-2.62,2.6a10.27,10.27,0,0,0,1.45.42,9.91,9.91,0,0,0,2.52.19,11.69,11.69,0,0,0,4-1l2.05,1.19,2.76-1.6Z" style="fill:#0064FA"></path><polygon points="394.86 313.24 394.86 315.43 396.91 316.61 396.91 314.42 394.86 313.24" style="fill:#0064FA"></polygon><polygon points="394.86 313.24 394.86 315.43 396.91 316.61 396.91 314.42 394.86 313.24" style="opacity:0.45"></polygon><polygon points="378.42 304.01 381.21 302.39 383.26 303.57 381.23 302.72 378.42 304.01" style="fill:#f5f5f5"></polygon><path d="M384.66,306a4.06,4.06,0,0,1,3.56-.38l2.46-2.48-2.46,2.23A3.73,3.73,0,0,0,384.66,306Z" style="fill:#f5f5f5"></path><path d="M386.93,313.6a10.27,10.27,0,0,0,1.45.42,9.91,9.91,0,0,0,2.52.19,9,9,0,0,1-3.56-.71l2.21-2.5Z" style="fill:#f5f5f5"></path><polygon points="394.86 313.24 396.91 314.17 399.67 312.83 396.91 314.42 394.86 313.24" style="fill:#f5f5f5"></polygon><path d="M370.46,299.49c7.26-4.41,18.59-4.85,18.59-4.85-7.13,0-13.8,1.6-18.8,4.49-4.8,2.77-7.44,6.37-7.44,10.16C362.81,309.29,363.07,304,370.46,299.49Z" style="fill:#f5f5f5"></path><path d="M386.93,325.08c7.71.34,15.62-1.19,21.52-4.59,6.13-3.54,8.75-8.34,7.86-12.95,0,0,1.15,7.52-8.33,12.67S386.93,325.08,386.93,325.08Z" style="fill:#f5f5f5"></path><path d="M413.12,301.36a17.81,17.81,0,0,0-6.55-6.06c-10.72-6.18-28.09-6.18-38.8,0a17.84,17.84,0,0,0-6.56,6.06h-1.48V307h0c.2,3.89,2.87,7.76,8,10.73,10.71,6.19,28.08,6.19,38.8,0,5.15-3,7.83-6.84,8-10.73h0v-5.61Z" style="fill:#0064FA"></path><g style="opacity:0.25"><path d="M413.12,301.36a17.81,17.81,0,0,0-6.55-6.06c-10.72-6.18-28.09-6.18-38.8,0a17.84,17.84,0,0,0-6.56,6.06h-1.48V307h0c.2,3.89,2.87,7.76,8,10.73,10.71,6.19,28.08,6.19,38.8,0,5.15-3,7.83-6.84,8-10.73h0v-5.61Z"></path></g><path d="M387.17,290.66c-7,0-14,1.55-19.4,4.64a17.84,17.84,0,0,0-6.56,6.06h-1.48V307h0c.2,3.89,2.87,7.76,8,10.73,5.36,3.09,12.38,4.64,19.4,4.64Z" style="opacity:0.1"></path><path d="M372.18,293.23a30.26,30.26,0,0,0-4.41,2.07,17.84,17.84,0,0,0-6.56,6.06h-1.48V307h0c.2,3.89,2.87,7.76,8,10.73a30.26,30.26,0,0,0,4.41,2.07Z" style="opacity:0.1"></path><path d="M402.15,293.23a30.88,30.88,0,0,1,4.42,2.07,17.81,17.81,0,0,1,6.55,6.06h1.48V307h0c-.2,3.89-2.88,7.76-8,10.73a30.88,30.88,0,0,1-4.42,2.07Z" style="fill:#0064FA;opacity:0.5"></path><path d="M406.57,290.16c-10.72-6.18-28.09-6.18-38.8,0s-10.72,16.22,0,22.4,28.08,6.19,38.8,0S417.28,296.35,406.57,290.16Z" style="fill:#0064FA"></path><path d="M406.57,290.16c-10.72-6.18-28.09-6.18-38.8,0s-10.72,16.22,0,22.4,28.08,6.19,38.8,0S417.28,296.35,406.57,290.16Z" style="opacity:0.2"></path><path d="M399.8,294.26a31,31,0,0,0-25.26,0c-3.6,1.84-5.57,4.37-5.57,7.11s2,5.25,5.57,7.1a31,31,0,0,0,25.26,0c3.59-1.85,5.56-4.37,5.56-7.1S403.39,296.1,399.8,294.26Z" style="fill:#0064FA"></path><path d="M399.8,294.26a31,31,0,0,0-25.26,0c-3.6,1.84-5.57,4.37-5.57,7.11s2,5.25,5.57,7.1a31,31,0,0,0,25.26,0c3.59-1.85,5.56-4.37,5.56-7.1S403.39,296.1,399.8,294.26Z" style="opacity:0.4"></path><path d="M406,291.2c-5-2.89-11.68-4.48-18.8-4.48s-13.8,1.59-18.8,4.48c-4.8,2.77-7.44,6.38-7.44,10.17s2.64,7.39,7.44,10.16c5,2.89,11.67,4.48,18.8,4.48s13.8-1.59,18.8-4.48c4.79-2.77,7.44-6.38,7.44-10.16S410.76,294,406,291.2Zm-6.17,17.27a31,31,0,0,1-25.26,0c-3.6-1.85-5.57-4.37-5.57-7.1s2-5.27,5.57-7.11a31,31,0,0,1,25.26,0c3.59,1.84,5.56,4.37,5.56,7.11S403.39,306.62,399.8,308.47Z" style="fill:#0064FA"></path><path d="M399.37,307.63c6.74-3.46,6.74-9.07,0-12.53s-17.67-3.46-24.4,0-6.74,9.07,0,12.52S392.63,311.08,399.37,307.63Z" style="opacity:0.2"></path><path d="M399.37,307.63c6.74-3.46,6.74-9.07,0-12.53s-17.67-3.46-24.4,0-6.74,9.07,0,12.52S392.63,311.08,399.37,307.63Z" style="fill:#0064FA"></path><path d="M399.37,307.63c6.74-3.46,6.74-9.07,0-12.53s-17.67-3.46-24.4,0-6.74,9.07,0,12.52S392.63,311.08,399.37,307.63Z" style="opacity:0.6000000000000001"></path><path d="M399.37,297.45c-6.74-3.46-17.67-3.46-24.4,0-2.79,1.43-4.42,3.23-4.9,5.09.48,1.86,2.11,3.65,4.9,5.08,6.73,3.46,17.66,3.46,24.4,0,2.78-1.43,4.41-3.23,4.9-5.09C403.78,300.68,402.15,298.88,399.37,297.45Z" style="fill:#0064FA"></path><path d="M399.37,297.45c-6.74-3.46-17.67-3.46-24.4,0-2.79,1.43-4.42,3.23-4.9,5.09.48,1.86,2.11,3.65,4.9,5.08,6.73,3.46,17.66,3.46,24.4,0,2.78-1.43,4.41-3.23,4.9-5.09C403.78,300.68,402.15,298.88,399.37,297.45Z" style="opacity:0.5"></path><polygon points="388.8 295.24 388.8 297.77 387.94 298.68 386.34 300.35 386.34 297.72 388.8 295.24" style="fill:#0064FA"></polygon><polygon points="388.8 295.24 388.8 297.77 387.94 298.68 386.34 300.35 386.34 297.72 388.8 295.24" style="opacity:0.30000000000000004"></polygon><path d="M386.34,297.72v1.49a14.54,14.54,0,0,1-2.46.7,2.6,2.6,0,0,1-1.05,0,2.66,2.66,0,0,1-.5-.21c-.61-.36-.71-.9.45-1.57A4,4,0,0,1,386.34,297.72Z" style="fill:#0064FA"></path><path d="M386.34,297.72v1.49a14.54,14.54,0,0,1-2.46.7,2.6,2.6,0,0,1-1.05,0,2.66,2.66,0,0,1-.5-.21c-.61-.36-.71-.9.45-1.57A4,4,0,0,1,386.34,297.72Z" style="opacity:0.45"></path><path d="M397.79,304.9v2.19L395,308.68l-2-1.18a10.45,10.45,0,0,1-7.93.36v-2.19l1.26-1.25-1.26.35a8.07,8.07,0,0,1-6.17-.71c-1.24-.71-1.82-1.49-1.81-2.3v-2.13l.22-.93-.75-.44v-2.18l2,1.18a3.13,3.13,0,0,0-1.51,2.35v0c0,.79.6,1.55,1.81,2.25,2.69,1.55,5.36,1,7.8.26,2.27-.74,3.93-1.61,5.24-.86.81.47.56,1-.35,1.57a4.56,4.56,0,0,1-3.9.23l-2.62,2.59a9.09,9.09,0,0,0,1.45.42,10.75,10.75,0,0,0,6.48-.77l2,1.18Z" style="fill:#0064FA"></path><path d="M377.07,299.61v0c0,.79.6,1.55,1.81,2.25,2.69,1.55,5.36,1,7.8.26,2.27-.74,3.93-1.61,5.24-.86.81.47.56,1-.35,1.57a4.56,4.56,0,0,1-3.9.23l-2.62,2.59a9.09,9.09,0,0,0,1.45.42,10.75,10.75,0,0,0,6.48-.77l2,1.18,2.76-1.6v2.19L395,308.68l-2-1.18a10.45,10.45,0,0,1-7.93.36v-2.19l1.26-1.25-1.26.35a8.07,8.07,0,0,1-6.17-.71c-1.24-.71-1.82-1.49-1.81-2.3v-2.13l.22-.93" style="opacity:0.35000000000000003"></path><path d="M376.54,296.08v2.18l.75.44h0a4.55,4.55,0,0,1,1.29-1.45Z" style="opacity:0.45"></path><path d="M397.33,303.47a2.55,2.55,0,0,1-.2,1l-1.39-.8a2.71,2.71,0,0,0,1.57-2.1C397.32,302.22,397.33,303.42,397.33,303.47Z" style="fill:#0064FA"></path><g style="opacity:0.30000000000000004"><path d="M397.33,303.47a2.55,2.55,0,0,1-.2,1l-1.39-.8a2.71,2.71,0,0,0,1.57-2.1C397.32,302.22,397.33,303.42,397.33,303.47Z"></path></g><path d="M397.33,304.64l-1.58-.92a2.7,2.7,0,0,0,1.58-2.43c0-.07,0-.14,0-.21a3,3,0,0,0-1.77-2.15h0a7.26,7.26,0,0,0-3.68-1h-.35l-.33,0-.29,0h-.12l-.22,0a14.94,14.94,0,0,0-1.79.37l-.83.25c-.4.12-.79.25-1.16.38l-.44.15a14.47,14.47,0,0,1-2.45.7,2.83,2.83,0,0,1-1.06,0,2.13,2.13,0,0,1-.49-.21c-.62-.36-.72-.9.44-1.57a4.06,4.06,0,0,1,3.56-.37l2.46-2.48a10.51,10.51,0,0,0-7.42.41l-2.05-1.18-2.79,1.61,2,1.18a3.17,3.17,0,0,0-1.53,2.35v0c0,.79.61,1.55,1.82,2.25,2.69,1.56,5.36,1,7.8.25,2.27-.74,3.92-1.61,5.23-.85.82.47.57,1-.34,1.57a4.49,4.49,0,0,1-3.9.22l-2.62,2.6a10.33,10.33,0,0,0,1.45.43,9.46,9.46,0,0,0,2.52.18,11.69,11.69,0,0,0,4-1l2,1.18,2.76-1.6Z" style="fill:#0064FA"></path><polygon points="392.98 305.32 392.98 307.5 395.03 308.68 395.03 306.5 392.98 305.32" style="fill:#0064FA"></polygon><polygon points="392.98 305.32 392.98 307.5 395.03 308.68 395.03 306.5 392.98 305.32" style="opacity:0.45"></polygon><polygon points="376.54 296.08 379.33 294.47 381.38 295.65 379.34 294.8 376.54 296.08" style="fill:#f5f5f5"></polygon><path d="M382.78,298.09a4.06,4.06,0,0,1,3.56-.37l2.46-2.48-2.46,2.22A3.73,3.73,0,0,0,382.78,298.09Z" style="fill:#f5f5f5"></path><path d="M385.05,305.67a10.33,10.33,0,0,0,1.45.43,9.46,9.46,0,0,0,2.52.18,9,9,0,0,1-3.56-.71l2.21-2.5Z" style="fill:#f5f5f5"></path><polygon points="392.98 305.32 395.03 306.24 397.79 304.9 395.03 306.5 392.98 305.32" style="fill:#f5f5f5"></polygon><path d="M368.58,291.57c7.26-4.41,18.59-4.85,18.59-4.85-7.13,0-13.8,1.59-18.8,4.48-4.8,2.77-7.44,6.38-7.44,10.17C360.93,301.37,361.19,296.06,368.58,291.57Z" style="fill:#f5f5f5"></path><path d="M385.05,317.16c7.71.34,15.62-1.19,21.52-4.6,6.13-3.54,8.75-8.33,7.86-12.95,0,0,1.15,7.52-8.33,12.67S385.05,317.16,385.05,317.16Z" style="fill:#f5f5f5"></path><path d="M417,293.69a17.73,17.73,0,0,0-6.55-6.06c-10.71-6.18-28.08-6.18-38.8,0a17.73,17.73,0,0,0-6.55,6.06h-1.48v5.61h0c.19,3.89,2.86,7.76,8,10.73,10.72,6.19,28.09,6.19,38.8,0,5.15-3,7.84-6.84,8-10.73h0v-5.61Z" style="fill:#0064FA"></path><g style="opacity:0.25"><path d="M417,293.69a17.73,17.73,0,0,0-6.55-6.06c-10.71-6.18-28.08-6.18-38.8,0a17.73,17.73,0,0,0-6.55,6.06h-1.48v5.61h0c.19,3.89,2.86,7.76,8,10.73,10.72,6.19,28.09,6.19,38.8,0,5.15-3,7.84-6.84,8-10.73h0v-5.61Z"></path></g><path d="M391.09,283c-7,0-14,1.55-19.4,4.64a17.73,17.73,0,0,0-6.55,6.06h-1.48v5.61h0c.19,3.89,2.86,7.76,8,10.73,5.36,3.09,12.38,4.64,19.4,4.64Z" style="opacity:0.1"></path><path d="M376.11,285.56a30.38,30.38,0,0,0-4.42,2.07,17.73,17.73,0,0,0-6.55,6.06h-1.48v5.61h0c.19,3.89,2.86,7.76,8,10.73a30.38,30.38,0,0,0,4.42,2.07Z" style="opacity:0.1"></path><path d="M406.07,285.56a29.9,29.9,0,0,1,4.42,2.07,17.73,17.73,0,0,1,6.55,6.06h1.49v5.61h0c-.2,3.89-2.89,7.76-8,10.73a29.9,29.9,0,0,1-4.42,2.07Z" style="fill:#0064FA;opacity:0.5"></path><path d="M410.49,282.49c-10.71-6.18-28.08-6.18-38.8,0s-10.71,16.22,0,22.4,28.09,6.19,38.8,0S421.2,288.68,410.49,282.49Z" style="fill:#0064FA"></path><path d="M410.49,282.49c-10.71-6.18-28.08-6.18-38.8,0s-10.71,16.22,0,22.4,28.09,6.19,38.8,0S421.2,288.68,410.49,282.49Z" style="opacity:0.2"></path><path d="M403.72,286.59a31,31,0,0,0-25.26,0c-3.59,1.84-5.57,4.37-5.57,7.11s2,5.25,5.57,7.09a30.89,30.89,0,0,0,25.26,0c3.59-1.84,5.57-4.36,5.57-7.09S407.31,288.43,403.72,286.59Z" style="fill:#0064FA"></path><path d="M403.72,286.59a31,31,0,0,0-25.26,0c-3.59,1.84-5.57,4.37-5.57,7.11s2,5.25,5.57,7.09a30.89,30.89,0,0,0,25.26,0c3.59-1.84,5.57-4.36,5.57-7.09S407.31,288.43,403.72,286.59Z" style="opacity:0.4"></path><path d="M409.89,283.53c-5-2.89-11.68-4.48-18.8-4.48s-13.8,1.59-18.8,4.48c-4.8,2.77-7.44,6.38-7.44,10.17s2.64,7.39,7.44,10.16c5,2.89,11.68,4.48,18.8,4.48s13.8-1.59,18.8-4.48c4.8-2.77,7.44-6.38,7.44-10.16S414.69,286.3,409.89,283.53Zm-6.17,17.26a30.89,30.89,0,0,1-25.26,0c-3.59-1.84-5.57-4.36-5.57-7.09s2-5.27,5.57-7.11a31,31,0,0,1,25.26,0c3.59,1.84,5.57,4.37,5.57,7.11S407.31,299,403.72,300.79Z" style="fill:#0064FA"></path><ellipse cx="391.09" cy="293.69" rx="17.25" ry="8.85" style="opacity:0.2"></ellipse><ellipse cx="391.09" cy="293.69" rx="17.25" ry="8.85" style="fill:#0064FA"></ellipse><ellipse cx="391.09" cy="293.69" rx="17.25" ry="8.85" style="opacity:0.6000000000000001"></ellipse><path d="M403.29,289.78c-6.74-3.46-17.66-3.46-24.4,0-2.79,1.43-4.42,3.23-4.9,5.09.48,1.86,2.11,3.65,4.9,5.08,6.74,3.46,17.66,3.46,24.4,0,2.79-1.43,4.42-3.22,4.9-5.08C407.71,293,406.08,291.21,403.29,289.78Z" style="fill:#0064FA"></path><path d="M403.29,289.78c-6.74-3.46-17.66-3.46-24.4,0-2.79,1.43-4.42,3.23-4.9,5.09.48,1.86,2.11,3.65,4.9,5.08,6.74,3.46,17.66,3.46,24.4,0,2.79-1.43,4.42-3.22,4.9-5.08C407.71,293,406.08,291.21,403.29,289.78Z" style="opacity:0.5"></path><polygon points="392.73 287.57 392.73 290.1 391.86 291.01 390.26 292.68 390.26 290.05 392.73 287.57" style="fill:#0064FA"></polygon><polygon points="392.73 287.57 392.73 290.1 391.86 291.01 390.26 292.68 390.26 290.05 392.73 287.57" style="opacity:0.30000000000000004"></polygon><path d="M390.26,290.05v1.49a14.47,14.47,0,0,1-2.45.7,2.59,2.59,0,0,1-1.05,0,2.21,2.21,0,0,1-.5-.21c-.61-.36-.71-.9.45-1.57A4,4,0,0,1,390.26,290.05Z" style="fill:#0064FA"></path><path d="M390.26,290.05v1.49a14.47,14.47,0,0,1-2.45.7,2.59,2.59,0,0,1-1.05,0,2.21,2.21,0,0,1-.5-.21c-.61-.36-.71-.9.45-1.57A4,4,0,0,1,390.26,290.05Z" style="opacity:0.45"></path><path d="M401.72,297.23v2.19L399,301l-2.05-1.18a10.42,10.42,0,0,1-7.92.36V298l1.26-1.25-1.26.35a8.09,8.09,0,0,1-6.18-.71c-1.24-.71-1.81-1.49-1.81-2.3V292l.22-.93-.75-.44v-2.18l2.05,1.18a3.18,3.18,0,0,0-1.52,2.35v0c0,.79.6,1.55,1.81,2.25,2.7,1.55,5.36,1,7.81.26,2.27-.74,3.92-1.61,5.23-.86.81.47.57,1-.35,1.57a4.56,4.56,0,0,1-3.9.23L389,298a9,9,0,0,0,1.44.42,10.74,10.74,0,0,0,6.48-.77l2.05,1.18Z" style="fill:#0064FA"></path><path d="M381,291.94v0c0,.79.6,1.55,1.81,2.25,2.7,1.55,5.36,1,7.81.26,2.27-.74,3.92-1.61,5.23-.86.81.47.57,1-.35,1.57a4.56,4.56,0,0,1-3.9.23L389,298a9,9,0,0,0,1.44.42,10.74,10.74,0,0,0,6.48-.77l2.05,1.18,2.77-1.6v2.19L399,301l-2.05-1.18a10.42,10.42,0,0,1-7.92.36V298l1.26-1.25-1.26.35a8.09,8.09,0,0,1-6.18-.71c-1.24-.71-1.81-1.49-1.81-2.3V292l.22-.93" style="opacity:0.35000000000000003"></path><path d="M380.46,288.41v2.18l.75.44h0a4.48,4.48,0,0,1,1.3-1.45Z" style="opacity:0.45"></path><path d="M401.26,295.8a2.55,2.55,0,0,1-.21,1.05l-1.38-.8a2.73,2.73,0,0,0,1.57-2.1C401.25,294.55,401.26,295.74,401.26,295.8Z" style="fill:#0064FA"></path><g style="opacity:0.30000000000000004"><path d="M401.26,295.8a2.55,2.55,0,0,1-.21,1.05l-1.38-.8a2.73,2.73,0,0,0,1.57-2.1C401.25,294.55,401.26,295.74,401.26,295.8Z"></path></g><path d="M401.25,297l-1.58-.92a2.7,2.7,0,0,0,1.58-2.43,1.48,1.48,0,0,0,0-.21,3,3,0,0,0-1.77-2.15h0a7.26,7.26,0,0,0-3.68-1h-.35l-.33,0-.29,0h-.11l-.22,0a14.17,14.17,0,0,0-1.79.37l-.84.25c-.4.12-.79.25-1.16.38l-.44.15a14.47,14.47,0,0,1-2.45.7,2.63,2.63,0,0,1-1.06-.05,1.87,1.87,0,0,1-.49-.2c-.62-.36-.71-.9.45-1.57a4,4,0,0,1,3.55-.37l2.47-2.48a10.54,10.54,0,0,0-7.43.41l-2.05-1.18-2.79,1.61,2.05,1.18a3.15,3.15,0,0,0-1.52,2.35v0c0,.79.6,1.55,1.81,2.25,2.7,1.56,5.37,1,7.81.25,2.27-.74,3.92-1.61,5.23-.85.81.47.57,1-.35,1.57a4.49,4.49,0,0,1-3.9.22L389,298a10.75,10.75,0,0,0,1.45.43,9.5,9.5,0,0,0,2.53.18,11.69,11.69,0,0,0,3.95-1l2.05,1.18,2.76-1.6Z" style="fill:#0064FA"></path><polygon points="396.9 297.64 396.9 299.83 398.95 301.01 398.95 298.83 396.9 297.64" style="fill:#0064FA"></polygon><polygon points="396.9 297.64 396.9 299.83 398.95 301.01 398.95 298.83 396.9 297.64" style="opacity:0.45"></polygon><polygon points="380.46 288.41 383.25 286.8 385.3 287.98 383.27 287.13 380.46 288.41" style="fill:#f5f5f5"></polygon><path d="M386.71,290.42a4,4,0,0,1,3.55-.37l2.47-2.48-2.47,2.22A3.71,3.71,0,0,0,386.71,290.42Z" style="fill:#f5f5f5"></path><path d="M389,298a10.75,10.75,0,0,0,1.45.43,9.5,9.5,0,0,0,2.53.18,9,9,0,0,1-3.56-.71l2.2-2.5Z" style="fill:#f5f5f5"></path><polygon points="396.9 297.64 398.95 298.57 401.71 297.23 398.95 298.83 396.9 297.64" style="fill:#f5f5f5"></polygon><path d="M372.5,283.9c7.26-4.41,18.59-4.85,18.59-4.85-7.12,0-13.8,1.59-18.8,4.48-4.8,2.77-7.44,6.38-7.44,10.17C364.85,293.7,365.11,288.39,372.5,283.9Z" style="fill:#f5f5f5"></path><path d="M389,309.49c7.71.34,15.62-1.19,21.52-4.6,6.13-3.54,8.75-8.33,7.87-12.95,0,0,1.14,7.52-8.33,12.67S389,309.49,389,309.49Z" style="fill:#f5f5f5"></path><path d="M414.36,285.93a17.73,17.73,0,0,0-6.55-6.06c-10.71-6.18-28.08-6.18-38.8,0a17.73,17.73,0,0,0-6.55,6.06H361v5.61h0c.19,3.89,2.86,7.76,8,10.73,10.72,6.19,28.09,6.19,38.8,0,5.15-3,7.84-6.84,8-10.73h0v-5.61Z" style="fill:#0064FA"></path><g style="opacity:0.25"><path d="M414.36,285.93a17.73,17.73,0,0,0-6.55-6.06c-10.71-6.18-28.08-6.18-38.8,0a17.73,17.73,0,0,0-6.55,6.06H361v5.61h0c.19,3.89,2.86,7.76,8,10.73,10.72,6.19,28.09,6.19,38.8,0,5.15-3,7.84-6.84,8-10.73h0v-5.61Z"></path></g><path d="M388.41,275.23c-7,0-14,1.55-19.4,4.64a17.73,17.73,0,0,0-6.55,6.06H361v5.61h0c.19,3.89,2.86,7.76,8,10.73,5.36,3.09,12.38,4.64,19.4,4.64Z" style="opacity:0.1"></path><path d="M373.43,277.8a30.38,30.38,0,0,0-4.42,2.07,17.73,17.73,0,0,0-6.55,6.06H361v5.61h0c.19,3.89,2.86,7.76,8,10.73a30.38,30.38,0,0,0,4.42,2.07Z" style="opacity:0.1"></path><path d="M403.4,277.8a30.26,30.26,0,0,1,4.41,2.07,17.73,17.73,0,0,1,6.55,6.06h1.49v5.61h0c-.2,3.89-2.89,7.76-8,10.73a30.26,30.26,0,0,1-4.41,2.07Z" style="fill:#0064FA;opacity:0.5"></path><path d="M407.81,274.73c-10.71-6.18-28.08-6.18-38.8,0s-10.71,16.22,0,22.4,28.09,6.19,38.8,0S418.52,280.92,407.81,274.73Z" style="fill:#0064FA"></path><path d="M407.81,274.73c-10.71-6.18-28.08-6.18-38.8,0s-10.71,16.22,0,22.4,28.09,6.19,38.8,0S418.52,280.92,407.81,274.73Z" style="opacity:0.2"></path><path d="M401.05,278.83a31,31,0,0,0-25.27,0c-3.59,1.84-5.57,4.37-5.57,7.11s2,5.25,5.57,7.1a31,31,0,0,0,25.27,0c3.58-1.85,5.56-4.37,5.56-7.1S404.63,280.67,401.05,278.83Z" style="fill:#0064FA"></path><path d="M401.05,278.83a31,31,0,0,0-25.27,0c-3.59,1.84-5.57,4.37-5.57,7.11s2,5.25,5.57,7.1a31,31,0,0,0,25.27,0c3.58-1.85,5.56-4.37,5.56-7.1S404.63,280.67,401.05,278.83Z" style="opacity:0.4"></path><path d="M407.21,275.77c-5-2.89-11.68-4.48-18.8-4.48s-13.8,1.59-18.8,4.48c-4.8,2.77-7.44,6.38-7.44,10.17s2.64,7.39,7.44,10.16c5,2.89,11.68,4.48,18.8,4.48s13.8-1.59,18.8-4.48c4.8-2.77,7.44-6.38,7.44-10.16S412,278.54,407.21,275.77ZM401.05,293a31,31,0,0,1-25.27,0c-3.59-1.85-5.57-4.37-5.57-7.1s2-5.27,5.57-7.11a31,31,0,0,1,25.27,0c3.58,1.84,5.56,4.37,5.56,7.11S404.63,291.19,401.05,293Z" style="fill:#0064FA"></path><ellipse cx="388.41" cy="285.93" rx="17.25" ry="8.85" style="opacity:0.2"></ellipse><ellipse cx="388.41" cy="285.93" rx="17.25" ry="8.85" style="fill:#0064FA"></ellipse><ellipse cx="388.41" cy="285.93" rx="17.25" ry="8.85" style="opacity:0.6000000000000001"></ellipse><path d="M400.61,282c-6.74-3.46-17.66-3.46-24.4,0-2.79,1.43-4.42,3.23-4.9,5.09.48,1.86,2.11,3.66,4.9,5.09,6.74,3.45,17.66,3.45,24.4,0,2.79-1.43,4.42-3.23,4.9-5.09C405,285.25,403.4,283.45,400.61,282Z" style="fill:#0064FA"></path><path d="M400.61,282c-6.74-3.46-17.66-3.46-24.4,0-2.79,1.43-4.42,3.23-4.9,5.09.48,1.86,2.11,3.66,4.9,5.09,6.74,3.45,17.66,3.45,24.4,0,2.79-1.43,4.42-3.23,4.9-5.09C405,285.25,403.4,283.45,400.61,282Z" style="opacity:0.5"></path><polygon points="390.05 279.81 390.05 282.34 389.18 283.25 387.58 284.92 387.58 282.29 390.05 279.81" style="fill:#0064FA"></polygon><polygon points="390.05 279.81 390.05 282.34 389.18 283.25 387.58 284.92 387.58 282.29 390.05 279.81" style="opacity:0.30000000000000004"></polygon><path d="M387.58,282.29v1.49a14.47,14.47,0,0,1-2.45.7,2.59,2.59,0,0,1-1.05,0,2.21,2.21,0,0,1-.5-.21c-.61-.36-.71-.9.45-1.57A4,4,0,0,1,387.58,282.29Z" style="fill:#0064FA"></path><path d="M387.58,282.29v1.49a14.47,14.47,0,0,1-2.45.7,2.59,2.59,0,0,1-1.05,0,2.21,2.21,0,0,1-.5-.21c-.61-.36-.71-.9.45-1.57A4,4,0,0,1,387.58,282.29Z" style="opacity:0.45"></path><path d="M399,289.47v2.19l-2.77,1.59-2-1.18a10.42,10.42,0,0,1-7.92.36v-2.19l1.26-1.25-1.26.35a8.06,8.06,0,0,1-6.17-.71c-1.25-.71-1.82-1.49-1.82-2.3V284.2l.23-.93-.76-.44v-2.18l2.05,1.18a3.18,3.18,0,0,0-1.52,2.35v0c0,.79.61,1.55,1.82,2.25,2.69,1.55,5.35,1,7.8.26,2.27-.74,3.92-1.61,5.23-.86.81.47.57,1-.34,1.57a4.59,4.59,0,0,1-3.91.23l-2.61,2.59a8.06,8.06,0,0,0,1.44.42,10.74,10.74,0,0,0,6.48-.77l2,1.18Z" style="fill:#0064FA"></path><path d="M378.31,284.18v0c0,.79.61,1.55,1.82,2.25,2.69,1.55,5.35,1,7.8.26,2.27-.74,3.92-1.61,5.23-.86.81.47.57,1-.34,1.57a4.59,4.59,0,0,1-3.91.23l-2.61,2.59a8.06,8.06,0,0,0,1.44.42,10.74,10.74,0,0,0,6.48-.77l2,1.18,2.77-1.6v2.19l-2.77,1.59-2-1.18a10.42,10.42,0,0,1-7.92.36v-2.19l1.26-1.25-1.26.35a8.06,8.06,0,0,1-6.17-.71c-1.25-.71-1.82-1.49-1.82-2.3V284.2l.23-.93" style="opacity:0.35000000000000003"></path><path d="M377.78,280.65v2.18l.76.44h0a4.48,4.48,0,0,1,1.3-1.45Z" style="opacity:0.45"></path><path d="M398.58,288a2.55,2.55,0,0,1-.21,1l-1.38-.8a2.73,2.73,0,0,0,1.57-2.1C398.57,286.79,398.58,288,398.58,288Z" style="fill:#0064FA"></path><g style="opacity:0.30000000000000004"><path d="M398.58,288a2.55,2.55,0,0,1-.21,1l-1.38-.8a2.73,2.73,0,0,0,1.57-2.1C398.57,286.79,398.58,288,398.58,288Z"></path></g><path d="M398.57,289.21l-1.58-.92a2.7,2.7,0,0,0,1.58-2.43,1.48,1.48,0,0,0,0-.21,3,3,0,0,0-1.77-2.15h0a7.26,7.26,0,0,0-3.68-1h-.35l-.33,0-.29,0H392l-.22,0A14.17,14.17,0,0,0,390,283l-.84.25c-.4.12-.79.25-1.16.38l-.44.15a14.47,14.47,0,0,1-2.45.7,2.84,2.84,0,0,1-1.06,0,2.33,2.33,0,0,1-.49-.21c-.62-.36-.71-.9.45-1.57a4,4,0,0,1,3.55-.37l2.47-2.48a10.54,10.54,0,0,0-7.43.41L380.57,279l-2.79,1.61,2.05,1.18a3.15,3.15,0,0,0-1.52,2.35v0c0,.79.6,1.55,1.82,2.25,2.69,1.56,5.36,1,7.8.25,2.27-.74,3.92-1.61,5.23-.85.81.47.57,1-.34,1.57a4.51,4.51,0,0,1-3.91.22l-2.61,2.6a10.21,10.21,0,0,0,1.44.43,9.5,9.5,0,0,0,2.53.18,11.63,11.63,0,0,0,4-1l2,1.18,2.76-1.6Z" style="fill:#0064FA"></path><polygon points="394.22 289.89 394.22 292.07 396.27 293.25 396.27 291.07 394.22 289.89" style="fill:#0064FA"></polygon><polygon points="394.22 289.89 394.22 292.07 396.27 293.25 396.27 291.07 394.22 289.89" style="opacity:0.45"></polygon><polygon points="377.78 280.65 380.57 279.04 382.62 280.22 380.59 279.37 377.78 280.65" style="fill:#f5f5f5"></polygon><path d="M384,282.66a4,4,0,0,1,3.55-.37l2.47-2.48L387.58,282A3.71,3.71,0,0,0,384,282.66Z" style="fill:#f5f5f5"></path><path d="M386.3,290.24a10.21,10.21,0,0,0,1.44.43,9.5,9.5,0,0,0,2.53.18,9,9,0,0,1-3.56-.71l2.2-2.5Z" style="fill:#f5f5f5"></path><polygon points="394.22 289.89 396.27 290.81 399.03 289.48 396.27 291.07 394.22 289.89" style="fill:#f5f5f5"></polygon><path d="M369.82,276.14c7.27-4.41,18.59-4.85,18.59-4.85-7.12,0-13.8,1.59-18.8,4.48-4.8,2.77-7.44,6.38-7.44,10.17C362.17,285.94,362.43,280.63,369.82,276.14Z" style="fill:#f5f5f5"></path><path d="M386.3,301.73c7.7.34,15.62-1.19,21.51-4.6,6.13-3.53,8.75-8.33,7.87-12.95,0,0,1.14,7.52-8.33,12.67S386.3,301.73,386.3,301.73Z" style="fill:#f5f5f5"></path></g><g id="freepik--coins--inject-203"><path d="M462.67,322.33a17.76,17.76,0,0,0-6.56-6.06c-10.71-6.18-28.08-6.18-38.79,0a17.84,17.84,0,0,0-6.56,6.06h-1.48v5.61h0c.2,3.89,2.87,7.76,8,10.73,10.71,6.19,28.08,6.19,38.79,0,5.16-3,7.84-6.84,8-10.73h0v-5.61Z" style="fill:#0064FA"></path><g style="opacity:0.25"><path d="M462.67,322.33a17.76,17.76,0,0,0-6.56-6.06c-10.71-6.18-28.08-6.18-38.79,0a17.84,17.84,0,0,0-6.56,6.06h-1.48v5.61h0c.2,3.89,2.87,7.76,8,10.73,10.71,6.19,28.08,6.19,38.79,0,5.16-3,7.84-6.84,8-10.73h0v-5.61Z"></path></g><path d="M436.72,311.63c-7,0-14.05,1.55-19.4,4.64a17.84,17.84,0,0,0-6.56,6.06h-1.48v5.61h0c.2,3.89,2.87,7.76,8,10.73,5.35,3.09,12.38,4.64,19.4,4.64Z" style="opacity:0.1"></path><path d="M421.73,314.2a30.26,30.26,0,0,0-4.41,2.07,17.84,17.84,0,0,0-6.56,6.06h-1.48v5.61h0c.2,3.89,2.87,7.76,8,10.73a30.26,30.26,0,0,0,4.41,2.07Z" style="opacity:0.1"></path><path d="M451.7,314.2a30.26,30.26,0,0,1,4.41,2.07,17.76,17.76,0,0,1,6.56,6.06h1.48v5.61h0c-.2,3.89-2.88,7.76-8,10.73a30.26,30.26,0,0,1-4.41,2.07Z" style="fill:#0064FA;opacity:0.5"></path><path d="M456.11,311.13c-10.71-6.18-28.08-6.18-38.79,0s-10.72,16.22,0,22.4,28.08,6.19,38.79,0S466.83,317.32,456.11,311.13Z" style="fill:#0064FA"></path><path d="M456.11,311.13c-10.71-6.18-28.08-6.18-38.79,0s-10.72,16.22,0,22.4,28.08,6.19,38.79,0S466.83,317.32,456.11,311.13Z" style="opacity:0.2"></path><path d="M449.35,315.23a31,31,0,0,0-25.27,0c-3.59,1.84-5.57,4.37-5.57,7.11s2,5.25,5.57,7.09a30.91,30.91,0,0,0,25.27,0c3.59-1.84,5.56-4.36,5.56-7.09S452.94,317.07,449.35,315.23Z" style="fill:#0064FA"></path><path d="M449.35,315.23a31,31,0,0,0-25.27,0c-3.59,1.84-5.57,4.37-5.57,7.11s2,5.25,5.57,7.09a30.91,30.91,0,0,0,25.27,0c3.59-1.84,5.56-4.36,5.56-7.09S452.94,317.07,449.35,315.23Z" style="opacity:0.4"></path><path d="M455.52,312.17c-5-2.89-11.68-4.48-18.81-4.48s-13.79,1.59-18.79,4.48c-4.8,2.77-7.44,6.37-7.44,10.17s2.64,7.39,7.44,10.16c5,2.88,11.67,4.48,18.79,4.48s13.81-1.6,18.81-4.48c4.79-2.77,7.44-6.38,7.44-10.16S460.31,314.94,455.52,312.17Zm-6.17,17.26a30.91,30.91,0,0,1-25.27,0c-3.59-1.84-5.57-4.36-5.57-7.09s2-5.27,5.57-7.11a31,31,0,0,1,25.27,0c3.59,1.84,5.56,4.37,5.56,7.11S452.94,327.59,449.35,329.43Z" style="fill:#0064FA"></path><ellipse cx="436.72" cy="322.33" rx="17.25" ry="8.85" style="opacity:0.2"></ellipse><ellipse cx="436.72" cy="322.33" rx="17.25" ry="8.85" style="fill:#0064FA"></ellipse><ellipse cx="436.72" cy="322.33" rx="17.25" ry="8.85" style="opacity:0.6000000000000001"></ellipse><path d="M448.92,318.42c-6.74-3.46-17.67-3.46-24.41,0-2.78,1.43-4.41,3.22-4.89,5.09.48,1.86,2.11,3.65,4.9,5.08,6.73,3.46,17.66,3.46,24.4,0,2.78-1.43,4.41-3.22,4.9-5.08C453.33,321.64,451.7,319.85,448.92,318.42Z" style="fill:#0064FA"></path><path d="M448.92,318.42c-6.74-3.46-17.67-3.46-24.41,0-2.78,1.43-4.41,3.22-4.89,5.09.48,1.86,2.11,3.65,4.9,5.08,6.73,3.46,17.66,3.46,24.4,0,2.78-1.43,4.41-3.22,4.9-5.08C453.33,321.64,451.7,319.85,448.92,318.42Z" style="opacity:0.5"></path><polygon points="438.35 316.21 438.35 318.74 437.49 319.65 435.89 321.32 435.89 318.69 438.35 316.21" style="fill:#0064FA"></polygon><polygon points="438.35 316.21 438.35 318.74 437.49 319.65 435.89 321.32 435.89 318.69 438.35 316.21" style="opacity:0.30000000000000004"></polygon><path d="M435.89,318.69v1.49a14.54,14.54,0,0,1-2.46.7,2.6,2.6,0,0,1-1.05,0,2.41,2.41,0,0,1-.5-.21c-.61-.36-.71-.9.45-1.57A4,4,0,0,1,435.89,318.69Z" style="fill:#0064FA"></path><path d="M435.89,318.69v1.49a14.54,14.54,0,0,1-2.46.7,2.6,2.6,0,0,1-1.05,0,2.41,2.41,0,0,1-.5-.21c-.61-.36-.71-.9.45-1.57A4,4,0,0,1,435.89,318.69Z" style="opacity:0.45"></path><path d="M447.34,325.87v2.19l-2.77,1.59-2-1.18a10.45,10.45,0,0,1-7.93.36v-2.19l1.26-1.25-1.26.35a8.07,8.07,0,0,1-6.17-.71c-1.24-.71-1.82-1.5-1.81-2.3V320.6l.22-.93-.76-.44v-2.18l2.05,1.18a3.13,3.13,0,0,0-1.51,2.35v0c0,.79.6,1.55,1.81,2.25,2.69,1.55,5.36,1,7.8.26,2.27-.74,3.93-1.62,5.24-.86.81.47.56,1-.35,1.57a4.56,4.56,0,0,1-3.9.23l-2.62,2.59a9.09,9.09,0,0,0,1.45.42,10.67,10.67,0,0,0,6.48-.78l2,1.19Z" style="fill:#0064FA"></path><path d="M426.62,320.58v0c0,.79.6,1.55,1.81,2.25,2.69,1.55,5.36,1,7.8.26,2.27-.74,3.93-1.62,5.24-.86.81.47.56,1-.35,1.57a4.56,4.56,0,0,1-3.9.23l-2.62,2.59a9.09,9.09,0,0,0,1.45.42,10.67,10.67,0,0,0,6.48-.78l2,1.19,2.77-1.6v2.19l-2.77,1.59-2-1.18a10.45,10.45,0,0,1-7.93.36v-2.19l1.26-1.25-1.26.35a8.07,8.07,0,0,1-6.17-.71c-1.24-.71-1.82-1.5-1.81-2.3V320.6l.22-.93" style="opacity:0.35000000000000003"></path><path d="M426.08,317.05v2.18l.76.44h0a4.45,4.45,0,0,1,1.29-1.45Z" style="opacity:0.45"></path><path d="M446.88,324.44a2.64,2.64,0,0,1-.2,1l-1.39-.79a2.71,2.71,0,0,0,1.57-2.1C446.87,323.19,446.88,324.38,446.88,324.44Z" style="fill:#0064FA"></path><g style="opacity:0.30000000000000004"><path d="M446.88,324.44a2.64,2.64,0,0,1-.2,1l-1.39-.79a2.71,2.71,0,0,0,1.57-2.1C446.87,323.19,446.88,324.38,446.88,324.44Z"></path></g><path d="M446.88,325.61l-1.58-.92a2.7,2.7,0,0,0,1.58-2.43,1.36,1.36,0,0,0,0-.21c-.06-.76-.62-1.49-1.76-2.15h0a7.36,7.36,0,0,0-3.69-.95h-.35l-.32,0-.29,0h-.12l-.22,0a14.54,14.54,0,0,0-1.79.37l-.83.25c-.4.12-.79.25-1.16.38l-.44.15a14.54,14.54,0,0,1-2.46.7,2.58,2.58,0,0,1-1.05-.05,1.94,1.94,0,0,1-.5-.2c-.61-.36-.71-.9.45-1.57a4.05,4.05,0,0,1,3.56-.37l2.46-2.48a10.54,10.54,0,0,0-7.43.41l-2.05-1.18-2.79,1.61,2.05,1.18a3.18,3.18,0,0,0-1.52,2.35v0c0,.79.61,1.55,1.82,2.25,2.69,1.56,5.36,1,7.8.25,2.27-.74,3.92-1.61,5.23-.85.82.47.57,1-.34,1.57a4.49,4.49,0,0,1-3.9.22l-2.62,2.6a10.33,10.33,0,0,0,1.45.43,9.46,9.46,0,0,0,2.52.18,11.69,11.69,0,0,0,4-1l2.05,1.19,2.76-1.6Z" style="fill:#0064FA"></path><polygon points="442.53 326.28 442.53 328.47 444.58 329.65 444.58 327.47 442.53 326.28" style="fill:#0064FA"></polygon><polygon points="442.53 326.28 442.53 328.47 444.58 329.65 444.58 327.47 442.53 326.28" style="opacity:0.45"></polygon><polygon points="426.08 317.05 428.88 315.44 430.93 316.62 428.89 315.77 426.08 317.05" style="fill:#f5f5f5"></polygon><path d="M432.33,319.06a4.05,4.05,0,0,1,3.56-.37l2.46-2.48-2.46,2.22A3.73,3.73,0,0,0,432.33,319.06Z" style="fill:#f5f5f5"></path><path d="M434.6,326.64a10.33,10.33,0,0,0,1.45.43,9.46,9.46,0,0,0,2.52.18,9,9,0,0,1-3.56-.71l2.21-2.5Z" style="fill:#f5f5f5"></path><polygon points="442.53 326.28 444.58 327.21 447.34 325.87 444.58 327.47 442.53 326.28" style="fill:#f5f5f5"></polygon><path d="M418.13,312.54c7.26-4.42,18.58-4.85,18.58-4.85-7.12,0-13.79,1.59-18.79,4.48-4.8,2.77-7.44,6.37-7.44,10.17C410.48,322.34,410.74,317,418.13,312.54Z" style="fill:#f5f5f5"></path><path d="M434.6,338.13c7.71.34,15.62-1.19,21.51-4.6,6.14-3.54,8.76-8.33,7.87-12.95,0,0,1.15,7.52-8.33,12.67S434.6,338.13,434.6,338.13Z" style="fill:#f5f5f5"></path><path d="M464.31,314.63a17.68,17.68,0,0,0-6.56-6.06c-10.71-6.19-28.08-6.19-38.79,0a17.6,17.6,0,0,0-6.56,6.06h-1.48v5.6h0c.2,3.9,2.86,7.76,8,10.74,10.71,6.18,28.08,6.18,38.79,0,5.16-3,7.84-6.84,8-10.74h0v-5.6Z" style="fill:#0064FA"></path><g style="opacity:0.25"><path d="M464.31,314.63a17.68,17.68,0,0,0-6.56-6.06c-10.71-6.19-28.08-6.19-38.79,0a17.6,17.6,0,0,0-6.56,6.06h-1.48v5.6h0c.2,3.9,2.86,7.76,8,10.74,10.71,6.18,28.08,6.18,38.79,0,5.16-3,7.84-6.84,8-10.74h0v-5.6Z"></path></g><path d="M438.36,303.93c-7,0-14.05,1.54-19.4,4.64a17.6,17.6,0,0,0-6.56,6.06h-1.48v5.6h0c.2,3.9,2.86,7.76,8,10.74,5.35,3.09,12.37,4.64,19.4,4.64Z" style="opacity:0.1"></path><path d="M423.37,306.5a30.26,30.26,0,0,0-4.41,2.07,17.6,17.6,0,0,0-6.56,6.06h-1.48v5.6h0c.2,3.9,2.86,7.76,8,10.74a30.26,30.26,0,0,0,4.41,2.07Z" style="opacity:0.1"></path><path d="M453.34,306.5a30.26,30.26,0,0,1,4.41,2.07,17.68,17.68,0,0,1,6.56,6.06h1.48v5.6h0c-.2,3.9-2.89,7.76-8,10.74a30.26,30.26,0,0,1-4.41,2.07Z" style="fill:#0064FA;opacity:0.5"></path><path d="M457.75,303.43c-10.71-6.19-28.08-6.19-38.79,0s-10.72,16.21,0,22.4,28.08,6.19,38.79,0S468.47,309.62,457.75,303.43Z" style="fill:#0064FA"></path><path d="M457.75,303.43c-10.71-6.19-28.08-6.19-38.79,0s-10.72,16.21,0,22.4,28.08,6.19,38.79,0S468.47,309.62,457.75,303.43Z" style="opacity:0.2"></path><path d="M451,307.53a30.91,30.91,0,0,0-25.27,0c-3.59,1.84-5.57,4.36-5.57,7.1s2,5.26,5.57,7.1a30.91,30.91,0,0,0,25.27,0c3.58-1.84,5.56-4.36,5.56-7.1S454.57,309.37,451,307.53Z" style="fill:#0064FA"></path><path d="M451,307.53a30.91,30.91,0,0,0-25.27,0c-3.59,1.84-5.57,4.36-5.57,7.1s2,5.26,5.57,7.1a30.91,30.91,0,0,0,25.27,0c3.58-1.84,5.56-4.36,5.56-7.1S454.57,309.37,451,307.53Z" style="opacity:0.4"></path><path d="M457.16,304.47c-5-2.89-11.69-4.49-18.81-4.49s-13.79,1.6-18.8,4.49c-4.79,2.77-7.43,6.37-7.43,10.16s2.64,7.4,7.43,10.17c5,2.88,11.68,4.48,18.8,4.48s13.8-1.6,18.81-4.48c4.79-2.77,7.44-6.38,7.44-10.17S462,307.24,457.16,304.47ZM451,321.73a30.91,30.91,0,0,1-25.27,0c-3.59-1.84-5.57-4.36-5.57-7.1s2-5.26,5.57-7.1a30.91,30.91,0,0,1,25.27,0c3.58,1.84,5.56,4.36,5.56,7.1S454.57,319.89,451,321.73Z" style="fill:#0064FA"></path><ellipse cx="438.35" cy="314.63" rx="17.25" ry="8.85" style="opacity:0.2"></ellipse><ellipse cx="438.35" cy="314.63" rx="17.25" ry="8.85" style="fill:#0064FA"></ellipse><ellipse cx="438.35" cy="314.63" rx="17.25" ry="8.85" style="opacity:0.6000000000000001"></ellipse><path d="M450.56,310.71c-6.74-3.45-17.67-3.45-24.41,0-2.78,1.43-4.41,3.23-4.9,5.09.49,1.86,2.12,3.66,4.9,5.09,6.74,3.46,17.67,3.46,24.41,0,2.78-1.43,4.41-3.23,4.89-5.09C455,313.94,453.34,312.14,450.56,310.71Z" style="fill:#0064FA"></path><path d="M450.56,310.71c-6.74-3.45-17.67-3.45-24.41,0-2.78,1.43-4.41,3.23-4.9,5.09.49,1.86,2.12,3.66,4.9,5.09,6.74,3.46,17.67,3.46,24.41,0,2.78-1.43,4.41-3.23,4.89-5.09C455,313.94,453.34,312.14,450.56,310.71Z" style="opacity:0.5"></path><polygon points="439.99 308.5 439.99 311.03 439.13 311.94 437.53 313.62 437.53 310.99 439.99 308.5" style="fill:#0064FA"></polygon><polygon points="439.99 308.5 439.99 311.03 439.13 311.94 437.53 313.62 437.53 310.99 439.99 308.5" style="opacity:0.30000000000000004"></polygon><path d="M437.53,311v1.5a14.33,14.33,0,0,1-2.46.69,2.59,2.59,0,0,1-1.05,0,2.37,2.37,0,0,1-.5-.2c-.61-.37-.71-.91.45-1.57A4.06,4.06,0,0,1,437.53,311Z" style="fill:#0064FA"></path><path d="M437.53,311v1.5a14.33,14.33,0,0,1-2.46.69,2.59,2.59,0,0,1-1.05,0,2.37,2.37,0,0,1-.5-.2c-.61-.37-.71-.91.45-1.57A4.06,4.06,0,0,1,437.53,311Z" style="opacity:0.45"></path><path d="M449,318.17v2.18l-2.77,1.6-2-1.19a10.4,10.4,0,0,1-7.93.36v-2.18l1.26-1.25-1.26.35a8.12,8.12,0,0,1-6.17-.71c-1.24-.72-1.82-1.5-1.82-2.31V312.9l.23-.93-.76-.44v-2.19l2,1.19a3.16,3.16,0,0,0-1.52,2.34v0c0,.78.61,1.55,1.82,2.25,2.69,1.55,5.36,1,7.8.25,2.27-.74,3.92-1.61,5.23-.85.82.47.57,1-.34,1.57a4.52,4.52,0,0,1-3.9.22l-2.62,2.6a9.9,9.9,0,0,0,1.45.42,10.83,10.83,0,0,0,6.48-.78l2,1.18Z" style="fill:#0064FA"></path><path d="M428.25,312.87v0c0,.78.61,1.55,1.82,2.25,2.69,1.55,5.36,1,7.8.25,2.27-.74,3.92-1.61,5.23-.85.82.47.57,1-.34,1.57a4.52,4.52,0,0,1-3.9.22l-2.62,2.6a9.9,9.9,0,0,0,1.45.42,10.83,10.83,0,0,0,6.48-.78l2,1.18,2.77-1.59v2.18l-2.77,1.6-2-1.19a10.4,10.4,0,0,1-7.93.36v-2.18l1.26-1.25-1.26.35a8.12,8.12,0,0,1-6.17-.71c-1.24-.72-1.82-1.5-1.82-2.31V312.9l.23-.93" style="opacity:0.35000000000000003"></path><path d="M427.72,309.34v2.19l.76.44h0a4.5,4.5,0,0,1,1.3-1.45Z" style="opacity:0.45"></path><path d="M448.52,316.74a2.68,2.68,0,0,1-.2,1l-1.39-.79a2.73,2.73,0,0,0,1.57-2.11C448.51,315.48,448.52,316.68,448.52,316.74Z" style="fill:#0064FA"></path><g style="opacity:0.30000000000000004"><path d="M448.52,316.74a2.68,2.68,0,0,1-.2,1l-1.39-.79a2.73,2.73,0,0,0,1.57-2.11C448.51,315.48,448.52,316.68,448.52,316.74Z"></path></g><path d="M448.52,317.9l-1.59-.92a2.69,2.69,0,0,0,1.59-2.42,1.5,1.5,0,0,0,0-.22c-.07-.75-.62-1.48-1.77-2.14h0a7.24,7.24,0,0,0-3.68-1h-.35l-.33,0a2.66,2.66,0,0,0-.28,0H442a1.46,1.46,0,0,0-.22,0,14.54,14.54,0,0,0-1.79.37l-.84.24-1.15.38-.44.15a12.86,12.86,0,0,1-2.46.7,2.43,2.43,0,0,1-1.05,0,3.07,3.07,0,0,1-.5-.2c-.61-.36-.71-.9.45-1.57a4.06,4.06,0,0,1,3.56-.38L440,308.5a10.65,10.65,0,0,0-7.43.41l-2.05-1.17-2.79,1.61,2,1.18a3.16,3.16,0,0,0-1.52,2.35v0c0,.79.6,1.55,1.82,2.25,2.69,1.55,5.36,1,7.8.25,2.27-.74,3.92-1.61,5.23-.86.82.48.57,1-.34,1.57a4.49,4.49,0,0,1-3.9.23l-2.62,2.6a10.54,10.54,0,0,0,1.44.42,10,10,0,0,0,2.53.19,11.58,11.58,0,0,0,4-1l2,1.19,2.77-1.6Z" style="fill:#0064FA"></path><polygon points="444.17 318.58 444.17 320.76 446.21 321.95 446.21 319.76 444.17 318.58" style="fill:#0064FA"></polygon><polygon points="444.17 318.58 444.17 320.76 446.21 321.95 446.21 319.76 444.17 318.58" style="opacity:0.45"></polygon><polygon points="427.72 309.35 430.51 307.74 432.56 308.91 430.53 308.06 427.72 309.35" style="fill:#f5f5f5"></polygon><path d="M434,311.36a4.06,4.06,0,0,1,3.56-.38L440,308.5l-2.46,2.23A3.73,3.73,0,0,0,434,311.36Z" style="fill:#f5f5f5"></path><path d="M436.24,318.94a10.54,10.54,0,0,0,1.44.42,10,10,0,0,0,2.53.19,9,9,0,0,1-3.56-.71l2.21-2.5Z" style="fill:#f5f5f5"></path><polygon points="444.17 318.58 446.21 319.5 448.98 318.17 446.21 319.76 444.17 318.58" style="fill:#f5f5f5"></polygon><path d="M419.76,304.83c7.27-4.41,18.59-4.85,18.59-4.85-7.12,0-13.79,1.6-18.8,4.49-4.79,2.77-7.43,6.37-7.43,10.16C412.12,314.63,412.38,309.32,419.76,304.83Z" style="fill:#f5f5f5"></path><path d="M436.24,330.42c7.71.34,15.62-1.19,21.51-4.59,6.13-3.54,8.76-8.34,7.87-12.95,0,0,1.15,7.52-8.33,12.67S436.24,330.42,436.24,330.42Z" style="fill:#f5f5f5"></path></g></g><g id="freepik--Frames--inject-203"><g id="freepik--Diploma--inject-203"><g id="freepik--Window--inject-203"><polygon points="136.66 110.27 138.69 111.44 189.42 82.1 187.39 80.93 136.66 110.27" style="fill:#f5f5f5"></polygon><polygon points="187.39 80.93 138.69 109.1 138.66 66.86 187.36 38.7 187.39 80.93" style="fill:#0064FA"></polygon><g style="opacity:0.8"><polygon points="187.39 80.93 138.69 109.1 138.66 66.86 187.36 38.7 187.39 80.93" style="fill:#fff"></polygon></g><path d="M191.42,34,136.63,65.69l0,49.27,54.79-31.69Zm-2,48.09-50.73,29.34,0-44.57,50.73-29.35Z" style="fill:#ebebeb"></path><polygon points="189.42 82.1 187.39 80.93 187.36 38.7 189.39 37.52 189.42 82.1" style="fill:#e0e0e0"></polygon><polygon points="191.42 34.01 189.38 32.84 134.59 64.52 136.63 65.69 191.42 34.01" style="fill:#f5f5f5"></polygon><polygon points="134.59 64.52 136.63 65.69 136.66 114.96 134.63 113.79 134.59 64.52" style="fill:#e0e0e0"></polygon></g><path d="M176,75.55c1.89-1.09,3.42-.2,3.42,2A7.58,7.58,0,0,1,176,83.47c-1.89,1.09-3.42.2-3.42-2A7.56,7.56,0,0,1,176,75.55Z" style="fill:#0064FA"></path><path d="M176.68,50.13,150.89,65a2.86,2.86,0,0,0-1.3,2.25v.07c0,.83.59,1.17,1.3.76l25.79-14.9A2.86,2.86,0,0,0,178,51v-.08C178,50.05,177.4,49.71,176.68,50.13Z" style="opacity:0.2"></path><g style="opacity:0.2"><path d="M180.77,57.15,146.83,76.78a2.6,2.6,0,0,0-1.3,1.92c0,.65.58.84,1.3.43l34-19.65a2.59,2.59,0,0,0,1.28-1.92C182.07,56.92,181.49,56.73,180.77,57.15Z"></path><path d="M180.77,61.83,146.83,81.46a2.61,2.61,0,0,0-1.3,1.93c0,.65.58.83,1.3.42l34-19.65a2.57,2.57,0,0,0,1.29-1.92C182.08,61.6,181.49,61.42,180.77,61.83Z"></path><path d="M180.78,66.51,146.83,86.15a2.61,2.61,0,0,0-1.3,1.92c0,.65.59.84,1.3.42l34-19.65a2.54,2.54,0,0,0,1.29-1.91C182.08,66.29,181.49,66.1,180.78,66.51Z"></path></g><path d="M169.87,85.57a1.92,1.92,0,0,1-.85.22c-.72,0-.66-.74-.63-1.25,0-.23-.31-.58-.48-.28-.44.79-1,1.53-1.47,2.3-.29.47-.84,1.54-1.54,1.39-.29-.06-.39-.37-.39-.76a3.8,3.8,0,0,0,.46-2.12c0-.22-.4-.49-.52-.2a7.13,7.13,0,0,0-.44,1.95,13,13,0,0,1-1.09,1.64c-.24.31-.45.66-.71,1-.06.07-.18.25-.28.27s-.22-.1-.25-.26a1.72,1.72,0,0,1,.12-.7h0s0,0,0-.06h0c0-.23-.29-.57-.41-.29a10.23,10.23,0,0,1-2,3.32.69.69,0,0,1-.13.11c0-.13,0-.27,0-.41a3.62,3.62,0,0,0-.16-.92c-.05-.15-.31-.38-.45-.18a15.93,15.93,0,0,1-2.26,3.12,4.76,4.76,0,0,1-.47.33c-.16-.09.08-.91.11-1,.1-.37.22-.73.34-1.09a4.06,4.06,0,0,0,.27-.9c0-.28-.44-.71-.52-.34,0,.15-.17.53-.32,1a24.09,24.09,0,0,1-1.9,3.22,7.47,7.47,0,0,1-2.65,2.56c-.31.16-.87.39-1.2.15s-.3-.65-.31-1A8.54,8.54,0,0,1,150,94,14,14,0,0,0,153,91.91a10.06,10.06,0,0,0,2.23-2.46c.3-.54.48-1.44-.25-1.75-.5-.22-1.16.14-1.58.38a6.81,6.81,0,0,0-1.62,1.25,9.4,9.4,0,0,0-2,3.7c-.06.21-.15.49-.23.81a6.18,6.18,0,0,1-3.73.62c-.07,0-.1.15,0,.16a6.07,6.07,0,0,0,3.65-.34c-.33,1.42-.51,3.3.81,3.67s2.92-1.29,3.63-2.24a15.67,15.67,0,0,0,1.42-2.29,1.77,1.77,0,0,1,.12-.17c0,.66.13,1.14.77,1s1.25-1,1.61-1.53.65-1,1-1.46c.06.59.17,1.26.73,1.15s1-1.1,1.3-1.5a10.36,10.36,0,0,0,.65-1.06.59.59,0,0,0,.13.19c.47.51,1,0,1.33-.43.43-.57.92-1.16,1.32-1.8a1.15,1.15,0,0,0,.56.63c.73.35,1.41-.25,1.83-.79a14.85,14.85,0,0,0,1.36-2.19,1,1,0,0,0,.5.69,1.67,1.67,0,0,0,1.71-.11C170.32,85.94,170.11,85.45,169.87,85.57ZM154,88.38c.34-.17,1-.46,1.08.11a2,2,0,0,1-.46,1,12.64,12.64,0,0,1-2,2.09,16.28,16.28,0,0,1-2.47,1.88A7.94,7.94,0,0,1,154,88.38Z" style="opacity:0.30000000000000004"></path></g><g id="freepik--diploma--inject-203"><g id="freepik--window--inject-203"><polygon points="52.9 110.27 54.93 111.44 105.66 82.1 103.63 80.93 52.9 110.27" style="fill:#f5f5f5"></polygon><polygon points="103.63 80.93 54.93 109.1 54.9 66.86 103.6 38.7 103.63 80.93" style="fill:#0064FA"></polygon><g style="opacity:0.8"><polygon points="103.63 80.93 54.93 109.1 54.9 66.86 103.6 38.7 103.63 80.93" style="fill:#fff"></polygon></g><path d="M107.65,34,52.86,65.69l0,49.27,54.79-31.69Zm-2,48.09L54.93,111.44l0-44.57,50.73-29.35Z" style="fill:#ebebeb"></path><polygon points="105.66 82.1 103.63 80.93 103.6 38.7 105.63 37.52 105.66 82.1" style="fill:#e0e0e0"></polygon><polygon points="107.66 34.01 105.62 32.84 50.83 64.52 52.87 65.69 107.66 34.01" style="fill:#f5f5f5"></polygon><polygon points="50.83 64.52 52.87 65.69 52.9 114.96 50.87 113.79 50.83 64.52" style="fill:#e0e0e0"></polygon></g><path d="M92.21,75.55c1.89-1.09,3.42-.2,3.42,2a7.58,7.58,0,0,1-3.43,5.94c-1.89,1.09-3.42.2-3.42-2A7.54,7.54,0,0,1,92.21,75.55Z" style="fill:#0064FA"></path><path d="M92.92,50.13,67.13,65a2.86,2.86,0,0,0-1.3,2.25v.07c0,.83.58,1.17,1.3.76l25.79-14.9A2.86,2.86,0,0,0,94.22,51v-.08C94.22,50.05,93.64,49.71,92.92,50.13Z" style="opacity:0.2"></path><g style="opacity:0.2"><path d="M97,57.15,63.06,76.78a2.61,2.61,0,0,0-1.29,1.92c0,.65.58.84,1.3.43L97,59.48a2.59,2.59,0,0,0,1.28-1.92C98.31,56.92,97.73,56.73,97,57.15Z"></path><path d="M97,61.83,63.07,81.46a2.61,2.61,0,0,0-1.3,1.93c0,.65.58.83,1.3.42L97,64.16a2.53,2.53,0,0,0,1.28-1.92C98.32,61.6,97.73,61.42,97,61.83Z"></path><path d="M97,66.51,63.07,86.15a2.58,2.58,0,0,0-1.3,1.92c0,.65.59.84,1.3.42L97,68.84a2.54,2.54,0,0,0,1.29-1.91C98.32,66.29,97.73,66.1,97,66.51Z"></path></g><path d="M86.11,85.57a2,2,0,0,1-.85.22c-.72,0-.66-.74-.63-1.25,0-.23-.31-.58-.48-.28-.44.79-1,1.53-1.48,2.3-.28.47-.84,1.54-1.53,1.39-.29-.06-.39-.37-.39-.76a3.8,3.8,0,0,0,.46-2.12c0-.22-.4-.49-.52-.2a7.13,7.13,0,0,0-.44,1.95,13,13,0,0,1-1.09,1.64c-.24.31-.45.66-.71,1-.06.07-.18.25-.28.27s-.22-.1-.25-.26a1.72,1.72,0,0,1,.12-.7h0s0,0,0-.06h0c0-.23-.29-.57-.41-.29a10.23,10.23,0,0,1-2,3.32.69.69,0,0,1-.13.11c0-.13,0-.27,0-.41a3.62,3.62,0,0,0-.16-.92c-.05-.15-.31-.38-.45-.18a15.93,15.93,0,0,1-2.26,3.12,3.82,3.82,0,0,1-.48.33c-.15-.09.09-.91.12-1,.09-.37.22-.73.34-1.09a4.06,4.06,0,0,0,.27-.9c0-.28-.44-.71-.52-.34,0,.15-.17.53-.32,1a24.09,24.09,0,0,1-1.9,3.22,7.47,7.47,0,0,1-2.65,2.56c-.31.16-.87.39-1.2.15s-.3-.65-.31-1A8.54,8.54,0,0,1,66.25,94a14,14,0,0,0,2.94-2.08,10.06,10.06,0,0,0,2.23-2.46c.3-.54.48-1.44-.25-1.75-.5-.22-1.16.14-1.59.38A7,7,0,0,0,68,89.33a9.4,9.4,0,0,0-2,3.7c-.06.21-.15.49-.23.81a6.2,6.2,0,0,1-3.74.62c-.06,0-.09.15,0,.16a6.07,6.07,0,0,0,3.65-.34c-.33,1.42-.51,3.3.81,3.67s2.92-1.29,3.62-2.24a14.91,14.91,0,0,0,1.43-2.29,1.77,1.77,0,0,1,.12-.17c0,.66.13,1.14.77,1s1.25-1,1.61-1.53.65-1,1-1.46c.06.59.17,1.26.73,1.15s1-1.1,1.3-1.5a10.36,10.36,0,0,0,.65-1.06.59.59,0,0,0,.13.19c.47.51,1,0,1.33-.43.43-.57.92-1.16,1.32-1.8a1.12,1.12,0,0,0,.56.63c.73.35,1.41-.25,1.83-.79a15.74,15.74,0,0,0,1.36-2.19,1,1,0,0,0,.5.69,1.67,1.67,0,0,0,1.71-.11C86.56,85.94,86.35,85.45,86.11,85.57ZM70.23,88.38c.34-.17,1-.46,1.07.11a1.88,1.88,0,0,1-.46,1,12.18,12.18,0,0,1-2,2.09,16.28,16.28,0,0,1-2.47,1.88A7.94,7.94,0,0,1,70.23,88.38Z" style="opacity:0.30000000000000004"></path></g></g><g id="freepik--Briefcase--inject-203"><g id="freepik--briefcase--inject-203"><path d="M176.23,370.67h-.11a1.52,1.52,0,0,1-1.39-1.62l1.43-18.67C177,339.53,183,327.05,189.92,322c3.29-2.43,6.67-3,9.5-1.73,3.31,1.53,5.43,5.51,5.82,10.93l1.18,16.74a1.5,1.5,0,0,1-1.39,1.61,1.48,1.48,0,0,1-1.6-1.39l-1.19-16.75c-.31-4.29-1.79-7.36-4.08-8.41-1.8-.83-4.09-.33-6.45,1.41-6.17,4.55-11.8,16.31-12.56,26.23l-1.42,18.67A1.5,1.5,0,0,1,176.23,370.67Z" style="fill:#37474f"></path><path d="M233.19,393l-3.38-61a4.59,4.59,0,0,0-2.07-3.37l-1.65-.95a1.38,1.38,0,0,0-1.45-.11h0l-67.21,38.81L165.52,433l67.18-38.79h0A1.32,1.32,0,0,0,233.19,393Z" style="fill:#37474f"></path><path d="M155.9,428.09l8.31,4.79c1.08.62,1.89.12,1.83-1.12l-3.38-61a4.65,4.65,0,0,0-2.07-3.37l-1.65-1a1.26,1.26,0,0,0-2.06,1.12l-2.82,57.19A4.06,4.06,0,0,0,155.9,428.09Z" style="fill:#263238"></path><path d="M184.47,416.81a.75.75,0,0,1-.75-.71l-1.46-24.67a.75.75,0,1,1,1.5-.09L185.22,416a.77.77,0,0,1-.71.8Z" style="fill:#0064FA"></path><path d="M215,399.55a.75.75,0,0,1-.75-.71l-1.46-24.67a.75.75,0,1,1,1.5-.09l1.46,24.67a.75.75,0,0,1-.71.79Z" style="fill:#0064FA"></path><path d="M170.29,403.4a4,4,0,0,1-6-3.23l-1.65-29.45a4.69,4.69,0,0,0-2.09-3.37l-1.64-1a1.46,1.46,0,0,0-1.34-.18l67.05-38.71h0a1.34,1.34,0,0,1,1.44.11l1.65.95a4.68,4.68,0,0,1,2.08,3.38l1.63,29.18A11,11,0,0,1,226,371.28Z" style="fill:#455a64"></path><polygon points="194.53 386.96 202.51 382.36 202.85 386.77 194.86 391.38 194.53 386.96" style="fill:#0064FA"></polygon></g></g><g id="freepik--speech-bubble--inject-203"><g id="freepik--speech-bubble--inject-203"><g id="freepik--speech-bubble--inject-203"><path d="M399.41,44.21,371.16,60.55a3.33,3.33,0,0,0-1.5,2.61v34.9a3.26,3.26,0,0,0,1.51,2.59l3.54,2a3.38,3.38,0,0,0,3,0L406,86.31a3.34,3.34,0,0,0,1.51-2.61V48.81a3.29,3.29,0,0,0-1.52-2.6l-3.54-2A3.38,3.38,0,0,0,399.41,44.21Z" style="fill:#0064FA"></path><path d="M376.23,101.79V66.89a3.33,3.33,0,0,1,1.5-2.61L406,47.94c.83-.48,1.51-.09,1.51.87V83.7A3.34,3.34,0,0,1,406,86.31l-28.25,16.35C376.9,103.14,376.23,102.75,376.23,101.79Z" style="fill:#0064FA"></path><path d="M377.73,102.66a3.44,3.44,0,0,1-3,0l-3.54-2a3.3,3.3,0,0,1-1.52-2.59V63.16a3.15,3.15,0,0,1,.48-1.54l6.54,3.79a3,3,0,0,0-.44,1.48v34.89C376.23,102.66,376.85,103.17,377.73,102.66Z" style="opacity:0.2"></path><path d="M407.47,48.53c-.12-.76-.74-1-1.49-.6L377.74,64.28a3,3,0,0,0-1.07,1.13l-6.54-3.79a3,3,0,0,1,1-1.07l28.25-16.34a3.38,3.38,0,0,1,3,0l3.54,2A3.35,3.35,0,0,1,407.47,48.53Z" style="fill:#fff;opacity:0.5"></path><path d="M369.65,75l-10.24,9.84a1.33,1.33,0,0,0,.23,2.06c.25.16,6.54,3.82,6.54,3.82l10.05-11.87Z" style="fill:#0064FA"></path><path d="M369.65,75l-10.24,9.84a1.33,1.33,0,0,0,.23,2.06c.25.16,6.54,3.82,6.54,3.82l10.05-11.87Z" style="opacity:0.1"></path><path d="M376.23,78.83,366,88.66a1.34,1.34,0,0,0,1.15,2.26l9.1-1.09C377.41,89.83,377.41,78.83,376.23,78.83Z" style="fill:#0064FA"></path></g><g id="freepik----inject-203"><path d="M393.66,63.12a3.68,3.68,0,0,1,1.69,0,3.27,3.27,0,0,1,1.29.72,3.62,3.62,0,0,1,.85,1.21,4.36,4.36,0,0,1,.33,1.53,1.33,1.33,0,0,1-.14.57.81.81,0,0,1-.3.38l-2.7,1.56a.78.78,0,0,1-.47.14.66.66,0,0,1-.36-.17l-.2-.2a.89.89,0,0,0-.38-.24,1.2,1.2,0,0,0-.62-.06,2.45,2.45,0,0,0-.91.35,5.3,5.3,0,0,0-.75.52,4.19,4.19,0,0,0-.64.62,2.75,2.75,0,0,0-.46.76,2.35,2.35,0,0,0-.17.89,1,1,0,0,0,.19.68.87.87,0,0,0,.66.21,5.5,5.5,0,0,0,1.23-.18c.51-.13,1.15-.29,1.91-.5a6.16,6.16,0,0,1,2-.25,2.32,2.32,0,0,1,1.41.53,2.92,2.92,0,0,1,.85,1.42,8.63,8.63,0,0,1,.28,2.43,10.73,10.73,0,0,1-.33,2.64,12.86,12.86,0,0,1-4.24,6.68v2.26a1.65,1.65,0,0,1-.16.7,1.08,1.08,0,0,1-.39.48l-2.71,1.56a.29.29,0,0,1-.39,0,.66.66,0,0,1-.17-.51V87.5a3.84,3.84,0,0,1-1.78,0,3.17,3.17,0,0,1-1.37-.69,3.25,3.25,0,0,1-.88-1.29,5.46,5.46,0,0,1-.33-1.77,1.33,1.33,0,0,1,.14-.57.87.87,0,0,1,.3-.38l2.7-1.56a.89.89,0,0,1,.46-.15.67.67,0,0,1,.33.14l.25.27a1.34,1.34,0,0,0,1.14.45,2.45,2.45,0,0,0,1.05-.38,7.61,7.61,0,0,0,1.82-1.42,2.48,2.48,0,0,0,.74-1.74.69.69,0,0,0-.27-.64,1.36,1.36,0,0,0-.81-.12,7.22,7.22,0,0,0-1.37.26c-.56.16-1.22.32-2,.51-1.42.35-2.46.17-3.11-.55s-1-2-1-3.8a10.34,10.34,0,0,1,.26-2.3,12.7,12.7,0,0,1,.78-2.35,13.81,13.81,0,0,1,1.24-2.21,12.79,12.79,0,0,1,1.66-1.94V62.94a1.59,1.59,0,0,1,.17-.69,1.06,1.06,0,0,1,.39-.49l2.71-1.56a.29.29,0,0,1,.39,0,.68.68,0,0,1,.16.51Z" style="fill:#fafafa"></path></g></g></g><g id="freepik--Character--inject-203"><g id="freepik--character--inject-203"><path d="M404.11,146.4c3.37-4.36-1-16-3.81-19.17s-6.51-.74-6.51-.74l-3.45,13,6.33,7.81Z" style="fill:#0064FA"></path><path d="M404.11,146.4c3.37-4.36-1-16-3.81-19.17s-6.51-.74-6.51-.74l-3.45,13,6.33,7.81Z" style="fill:#fff;opacity:0.65"></path><path d="M404.11,146.4c3.37-4.36-1-16-3.81-19.17s-6.51-.74-6.51-.74l-3.45,13,6.33,7.81Z" style="opacity:0.1"></path><path d="M429.59,108.53a2.6,2.6,0,0,0-3.56-1.24,34.21,34.21,0,0,0-3.34,2.12,40.69,40.69,0,0,1-8.08,4.37,3.9,3.9,0,0,1-2.85.34,6.24,6.24,0,0,1,.86-2.3,11,11,0,0,0,1.06-2.22,2.94,2.94,0,0,0-.21-2.38,1.1,1.1,0,0,0-1.18-.58,1.55,1.55,0,0,0-.52.37c-.86.84-1.71,1.69-2.58,2.52a15.71,15.71,0,0,0-2,2.56c-.89,1.25-1.53,2.46-2.28,3.76a27.85,27.85,0,0,1-5.41,7.08c-2.67,2.41-16,12.64-18.57,14.76,0,0-19-14.76-24.34-19.51-9.6-8.6-17.62-8.27-21.89-8.29L342.2,129s27.41,20.16,32.43,23.52c6.22,4.45,10,3.51,12.65,1.07s4.83-5.05,7.15-7.64c3.48-3.87,6.91-7.78,10.47-11.58.89-1,1.79-1.9,2.72-2.81a16,16,0,0,1,4.28-3.47c1.42-.76,4.14-1.21,5.63-1.82a26.08,26.08,0,0,0,7.39-4.31,14,14,0,0,0,2.33-2.48,15.82,15.82,0,0,0,2.15-4.2,11.1,11.1,0,0,0,.86-3.35A5.93,5.93,0,0,0,429.59,108.53Z" style="fill:#ffa8a7"></path><path d="M334.7,109.89c6.05-.36,7.92-1.29,11.71-1,4.27.39,6.15,5,9.8,8.38C359,120,381,137.16,381,137.16l12.81-10.67c-1.88,6.49,2.37,20,10.32,19.91l-15.17,7.5c-3.48,1.73-8,3.85-12.05,1.17-5.58-3.71-30.15-20.29-30.15-20.29Z" style="fill:#0064FA"></path><path d="M334.7,109.89c6.05-.36,7.92-1.29,11.71-1,4.27.39,6.15,5,9.8,8.38C359,120,381,137.16,381,137.16l12.81-10.67c-1.88,6.49,2.37,20,10.32,19.91l-15.17,7.5c-3.48,1.73-8,3.85-12.05,1.17-5.58-3.71-30.15-20.29-30.15-20.29Z" style="fill:#fff;opacity:0.85"></path><path d="M395.86,150.48a17.31,17.31,0,0,1-8.05-14,17.38,17.38,0,0,0,2.67,10.13c2.6,3.82,3.88,4.64,3.88,4.64Z" style="fill:#0064FA;opacity:0.30000000000000004"></path><path d="M395.86,150.48a17.31,17.31,0,0,1-8.05-14,17.38,17.38,0,0,0,2.67,10.13c2.6,3.82,3.88,4.64,3.88,4.64Z" style="opacity:0.05"></path><g id="freepik--character--inject-203"><g id="freepik--character--inject-203"><path d="M346.77,152.44c-.18,4.17-4.16,22.77-4.16,22.77-16.94,11.69-42.74-.65-42.74-.65-1.34-9.42-3.77-22.64-7.29-31.87,0,0,13.3-18.36,4.84-31.4l15.42-1,14.46-.2,7.39-.2c7.08,7.88,13.77,16.9,15.48,21.17S354.18,143.61,346.77,152.44Z" style="fill:#0064FA"></path><g style="opacity:0.75"><path d="M346.77,152.44c-.18,4.17-4.16,22.77-4.16,22.77-16.94,11.69-42.74-.65-42.74-.65-1.34-9.42-3.77-22.64-7.29-31.87,0,0,13.3-18.36,4.84-31.4l15.42-1,14.46-.2,7.39-.2c7.08,7.88,13.77,16.9,15.48,21.17S354.18,143.61,346.77,152.44Z" style="fill:#fff"></path></g><path d="M330.22,109.93l2.65,0a32.92,32.92,0,0,1,9.3,15.43c1.87,7.53-1,9-1,9s3.64,9.71-.28,11.77c-2.59-5.8-12.44-34-12.44-34Z" style="fill:#37474f"></path><path d="M288.34,365.22a102.43,102.43,0,0,0-1.82,10.51c-.48,4-.77,6.93-1.86,13.72-1,6.2-2.3,10.81,2.21,16,3.68,4.24,11.63,5.14,13.82.46,2.5-5.34,1-12.86.64-18.23s.23-8.05.15-12.33c-.07-3.78-.27-5.32-.51-8.57C296.84,366.58,292.47,365.5,288.34,365.22Z" style="fill:#37474f"></path><path d="M354.91,384.84a33.88,33.88,0,0,1-3.17-3.37,12.42,12.42,0,0,1-1.67-2.92,83.34,83.34,0,0,1-4.31-12.2,38.81,38.81,0,0,1-1.83-11.91c.12-4.64,1.59-15.53,2.32-23.92.94-10.87,3.15-33,4.66-47.93,2.55-25.24-8.11-102.35-8.11-102.35l.43-1.16.14-3s-3,5.22-17.86,5.21a142.57,142.57,0,0,1-26.13-2.81c-1.84,5.59-6.84,7.95-10,18.42-3.67,12.21-.56,48,2.06,86.38-2.81,16-4.62,23.44-4.57,31.77.05,11,.2,19.08.82,29.46.54,8.9.66,15.63.65,20.69,0,7-2.19,18.37-1.13,23.72,1.59,8,11,10.75,12.2,1.61.73-5.72,1.08-18.26,1.62-24.49.62-7.2,1.49-13.14,2.88-22s10.33-43.33,12.16-59.78c1.24-11.16,2.75-27.62,5-41.31,1.64,7.71,4.82,29.55,5.77,39-1.8,9.08-2.35,15.64-1.57,23.91,1.58,16.65,3.9,26.57,4.29,40.23.18,6.31.48,7.71-.94,9.65l0,0c-1.63,2.23-2.9,4.33-2.81,5.85.1,1.84,1.26,3.49,2.21,5a24.29,24.29,0,0,1,1.94,4.43c1.44,3.6,1.91,7.49,2.44,11.31a14.75,14.75,0,0,0,.77,3.42c1.47,3.74,5.59,5.73,9.51,6.61s8.15,1.54,12.05.56c1.64-.41,3.1-1.1,3.39-3S357.21,387,354.91,384.84Z" style="fill:#ffa8a7"></path><path d="M327.72,386.4l1.42-.14c.29-4.45.22-8.53,1.42-10.58l-1.77-5.55Z" style="fill:#263238"></path><path d="M325.15,366c.18,3.07,1.77,6.28,1.62,12.29a51.55,51.55,0,0,1-.5,7.67l1.45.46,1.07-16.27Z" style="fill:#263238"></path><path d="M357.6,391.86s-.15,1.78-.94,2.33-2.49,2.23-10.3,1.41-10.46-2.87-13-5.44-3-9-3.24-12c-.51-5.9-2.81-9.08-5-12.14a5.24,5.24,0,0,1-.09-3.05s5.23,1.21,7.71,8.51,5.55,14.44,11.79,16.72A108.29,108.29,0,0,0,357.6,391.86Z" style="fill:#263238"></path><path d="M326,358.51c1.2-1.92,2.25-2.43,3.4-4.07a8.41,8.41,0,0,1,2.34,4.24c.41,1.59,1.31,9.33,2.92,15.53,1.21,4.66,3.49,7.2,6.71,8.6a13.3,13.3,0,0,0,6.42,1h0c4.09-.37,3.28-3.34,3.28-3.34.88,1.34,4.61,4.68,6.8,7.11,1.25,1.38.55,3.36-.5,4.61-1.18.92-3.92,2.76-13.58.9-8.57-1.64-10.41-5.72-11.15-7.56a42.89,42.89,0,0,1-1.42-8.18,25.45,25.45,0,0,0-2.63-8.73c-.18-.34-.36-.66-.53-.93h0c-.54-.88-1.19-1.85-1.92-2.83-.57-.75-1-1.12-1.17-1.82A6.57,6.57,0,0,1,326,358.51Z" style="fill:#37474f"></path><path d="M294.48,181.28c-6.86,13-7.05,16.19-7.69,28.48s1.16,56.64,1,60.94c-.15,5.12-1.83,26.7-1.83,26.7s4.43,5.49,15.6,8.41c15.54,4.06,41-.34,49.65-7.49,0,0,.48-27.72.78-35.72s-5.42-68.21-8-81.45Z" style="fill:#37474f"></path><path d="M298.64,171.64s-.11,2.26-4.16,9.64a74.21,74.21,0,0,0,26.65,6.59c14.74.67,22.88-6.72,22.88-6.72s-.68-5.84.26-9.84c0,0-5.86,5.07-20.36,5.14A66.35,66.35,0,0,1,298.64,171.64Z" style="fill:#455a64"></path><path d="M308.28,186.08s-9.17,17.83-8.79,35.11c.36,15.9,5.78,59.3.39,84.14-1.19-.39-2.25-.75-3.26-1.13a117.78,117.78,0,0,0,2.88-30c-.65-20.95-2.48-48.32-2.14-58.76.4-13.16,8.95-30.09,8.95-30.09v-11.1l1.27.3c0,2.73-.05,5.07,0,6.91A13,13,0,0,0,308.28,186.08Z" style="fill:#263238"></path><path d="M338.68,95.92S313,107.58,312.76,103c-5.41-8.85-15.5-11.23-16.37-27.17-.91-16.63,12.46-25.52,26.28-26.28h0a25.17,25.17,0,0,1,22.2,10.87c8,1.6,6.57,12.64-1.21,15Z" style="fill:#263238"></path><path d="M302,49.87c7.14,4.15,3.15,10.22-1.77,16.34a7.15,7.15,0,0,1-9.77,1.41,10.67,10.67,0,0,1,.93-17.69A10.2,10.2,0,0,1,302,49.87Z" style="fill:#263238"></path><path d="M310.87,50.27,306.66,56a3.51,3.51,0,0,1-.9-5A3.72,3.72,0,0,1,310.87,50.27Z" style="fill:#263238"></path><path d="M312.26,110.77l-.17-20.18s-2.47,2.73-6.43.14c-3.56-2.31-5.28-7.62-3-10.52,1.59-2,6.79-3.42,9.07.69,0,0,6.07-.62,13.71-6.69s9.25-11.16,14.09-12c2.38,1.62,4.89,6.64,5.39,20.21.38,10-3.86,15.08-6.06,16.93-1.79,1.51-4.17,1.84-8.25,1.39l.08,9.54c5,8.93,6.1,15.62,6.07,23.94C328.12,125.87,322.39,118.54,312.26,110.77Z" style="fill:#ffa8a7"></path><path d="M312.26,110.33l-7.14.52s2.06,9.15,9,15.39a38.12,38.12,0,0,0,15.55,8.11s-.13,4.94,2.47,8,9.66,4.72,9.66,4.72A79.83,79.83,0,0,0,338,137C334,127.66,312.26,110.33,312.26,110.33Z" style="fill:#455a64"></path><path d="M311.64,80l.31,5.56h0a3.92,3.92,0,0,0,3.75-4.1l-.3-5.37Z" style="fill:#263238"></path><path d="M327.56,79.12a1.84,1.84,0,0,1-1.63,2,1.88,1.88,0,1,1,1.63-2Z" style="fill:#263238"></path><path d="M342.48,74.58l-3.91-2.4a2.24,2.24,0,0,1,3.12-.79A2.35,2.35,0,0,1,342.48,74.58Z" style="fill:#263238"></path><path d="M328.45,90.26l4.35,1.38a2.23,2.23,0,0,1-2.82,1.5A2.34,2.34,0,0,1,328.45,90.26Z" style="fill:#f28f8f"></path><path d="M341.5,78.48a1.83,1.83,0,1,1-2-1.68A1.84,1.84,0,0,1,341.5,78.48Z" style="fill:#263238"></path><polygon points="332.34 77.59 333.14 87.42 338.34 85.53 332.34 77.59" style="fill:#f28f8f"></polygon><path d="M330.57,100.76c-4.3-.31-13.21-2.3-14.76-5.63a8.79,8.79,0,0,0,3.31,4.17c2.74,2.06,11.47,4.17,11.47,4.17Z" style="fill:#f28f8f"></path><path d="M316.2,50.52c8.7-2.49,12.36-.13,21.21-1.56,3.64-.59,7-.94,9.49.16,2.86,1.25,4.66,4.23,4.5,8.21-.27,6.73-7.39,8.84-7.39,8.84s-6.87-13.44-15-12.89S316.2,50.52,316.2,50.52Z" style="fill:#263238"></path></g><polygon points="366.41 155.5 323.83 154.38 311.21 202.23 351.69 202.24 366.41 155.5" style="fill:#0064FA"></polygon><polygon points="366.41 155.5 323.83 154.38 311.21 202.23 351.69 202.24 366.41 155.5" style="opacity:0.2"></polygon><path d="M330.6,183.84c.17,1-.62,2.32-2.7,3.77-1.67,1.18-2.9,3.38-5.61,3.77-5.52.8-8.16-.22-8.16-.22l1.72-6.54Z" style="opacity:0.15"></path><path d="M353.94,159.42l.36-1.48c.19-.81-2.31-1.56-5.58-1.66l-6.28-.19c-3.27-.1-6.09.48-6.28,1.3l-.36,1.48Z" style="opacity:0.15"></path><path d="M356.9,154.3c.12-.51-.89-.94-2.26-1l-2.48,0s.74-3.2-4.77-3.57-6.72,3.18-6.72,3.18l-2.66,0c-1.46,0-2.79.38-3,.88l-.32.89,21.94.59S356.78,154.81,356.9,154.3Z" style="fill:#263238"></path><path d="M353.88,155.15c-2-.1-2.85-.07-3.15,1.19-.34,1.44-.48,2.53-.48,2.53l-9.71-.25s.47-1.82.62-2.53-.18-1.27-1.72-1.31l-.13-.64,15.21.54Z" style="fill:#263238"></path><path d="M354.21,159.65s.15-.67.35-1.48-2.3-1.56-5.58-1.66l-6.27-.2c-3.28-.1-6.09.49-6.29,1.3l-.35,1.49Z" style="fill:#37474f"></path><path d="M293.61,190.74c2,1.15,7.18-1.33,9.34-9.15,2.73-9.89-.56-10.38-.56-10.38s-5.5-1.59-9.46,2.5S289.82,189.08,293.61,190.74Z" style="fill:#0064FA"></path><path d="M293.61,190.74c2,1.15,7.18-1.33,9.34-9.15,2.73-9.89-.56-10.38-.56-10.38s-5.5-1.59-9.46,2.5S289.82,189.08,293.61,190.74Z" style="fill:#fff;opacity:0.6000000000000001"></path><path d="M293.61,190.74c2,1.15,7.18-1.33,9.34-9.15,2.73-9.89-.56-10.38-.56-10.38s-5.5-1.59-9.46,2.5S289.82,189.08,293.61,190.74Z" style="opacity:0.1"></path><path d="M318.32,175.27l-.11.42a2.21,2.21,0,0,0,.5.15,37.52,37.52,0,0,0,6.7.4c2-.07,3.92-.26,5.88-.46a2.44,2.44,0,0,1,1.17.07,1.79,1.79,0,0,1,.81,2.17,10.11,10.11,0,0,1-1.22,2.23c-.77,1.33-1,2.84-1.85,4.14-2.87,4.46-7.93,6.21-19.9,3.15-3.45-.89-7.27-2.86-11.67-3.87-9-2.07-15.27-3.31-22.48-6.28-8.79-3.62-6.41-8.22-5.5-12.34,1.53-7,4.38-24.32,9.43-37.92,5.52-14.84,8.07-15.27,17.34-15.84,9.48,13.61-4,30.7-4,30.7l-6.52,23.08s11.22,5.3,19.06,7.1a13.15,13.15,0,0,0,3.8.67c2.62-.17,6.84-2.47,9.86-2.34Z" style="fill:#ffa8a7"></path><path d="M300.32,111.27c-3.23-1.42-10-2.54-13.67-1.84-5,.95-2.74,8-6.47,16.85-2.19,5.16-11.06,36.07-12.06,39.75-1.48,5.5-1.4,8.16,2.75,10.73,4.85,3,22.74,14,22.74,14-1.81-2.4.48-15.46,8.78-19.53l-15.17-6.13L295,140.75S305.51,126.7,300.32,111.27Z" style="fill:#0064FA"></path><path d="M300.32,111.27c-3.23-1.42-10-2.54-13.67-1.84-5,.95-2.74,8-6.47,16.85-2.19,5.16-11.06,36.07-12.06,39.75-1.48,5.5-1.4,8.16,2.75,10.73,4.85,3,22.74,14,22.74,14-1.81-2.4.48-15.46,8.78-19.53l-15.17-6.13L295,140.75S305.51,126.7,300.32,111.27Z" style="fill:#fff;opacity:0.85"></path><path d="M285,185.47c.33-4.18,1.65-10.66,5.87-15.73-2.2,1.26-6.07,6.49-6.82,15.15Z" style="fill:#0064FA;opacity:0.30000000000000004"></path><path d="M285,185.47c.33-4.18,1.65-10.66,5.87-15.73-2.2,1.26-6.07,6.49-6.82,15.15Z" style="opacity:0.05"></path></g></g></g></svg>