<?xml version="1.0" encoding="UTF-8"?>
<svg width="300px" height="300px" viewBox="0 0 300 300" version="1.1" xmlns="http://www.w3.org/2000/svg" xmlns:xlink="http://www.w3.org/1999/xlink">
    <title>google-chrome</title>
    <g id="Page-1" stroke="none" stroke-width="1" fill="none" fill-rule="evenodd">
        <g id="Artboard" transform="translate(-482.000000, -358.000000)" fill-rule="nonzero">
            <g id="google-chrome" transform="translate(482.000000, 358.000000)">
                <path d="M288.449123,93.5795322 L149.719883,93.5795322 C118.71462,93.5491228 93.5549708,118.659064 93.5239766,149.664327 C93.5146199,159.294737 95.9824561,168.765497 100.690643,177.166082 L31.3263158,58.148538 C81.848538,-7.24035088 175.81345,-19.2918129 241.202339,31.2304094 C262.201754,47.4555556 278.508187,68.974269 288.449123,93.5795322 Z" id="Path" fill="#F44336"></path>
                <path d="M299.427747,149.719883 C299.35848,232.372515 232.372515,299.35848 149.719883,299.428417 C143.460234,299.450877 137.207018,299.033918 131.006433,298.180117 L198.374854,177.790058 C213.815205,150.910526 204.611111,116.605848 177.790058,101.064912 C169.298246,96.148538 159.656725,93.5654971 149.844444,93.5794753 L288.448538,93.5794753 C295.733918,111.398246 299.463743,130.469591 299.427747,149.719883 Z" id="Path" fill="#FFC107"></path>
                <path d="M198.374854,177.790058 L131.006433,298.180117 L130.881871,298.180117 C48.9005848,287.822222 -9.16140351,212.966082 1.19649123,130.984795 C4.54912281,104.449708 14.9532164,79.2982456 31.3263158,58.148538 L100.690643,177.166082 L101.064912,177.790058 C116.533333,204.661404 150.85614,213.905263 177.727485,198.437427 C186.311111,193.496491 193.434503,186.373099 198.374854,177.790058 Z" id="Path" fill="#4CAF50"></path>
                <path d="M198.374854,177.790058 C182.906433,204.661404 148.583626,213.905263 121.712281,198.437427 C113.12924,193.496491 106.005848,186.373099 101.064912,177.790058 L100.690643,177.166082 C85.5321637,150.118713 95.1707602,115.904094 122.218129,100.745614 C130.619298,96.0374269 140.090058,93.5695906 149.719883,93.5788905 L149.844444,93.5788905 C159.656725,93.5649123 169.298246,96.1479532 177.790058,101.064327 C204.611696,116.605848 213.815205,150.910526 198.374854,177.790058 Z" id="Path" fill="#F44336"></path>
                <path d="M198.374854,177.790058 C182.906433,204.661404 148.583626,213.905263 121.712281,198.437427 C113.12924,193.496491 106.005848,186.373099 101.064912,177.790058 L100.690643,177.166082 C85.5321637,150.118713 95.1707602,115.904094 122.218129,100.745614 C130.619298,96.0374269 140.090058,93.5695906 149.719883,93.5788905 L149.844444,93.5788905 C159.656725,93.5649123 169.298246,96.1479532 177.790058,101.064327 C204.611696,116.605848 213.815205,150.910526 198.374854,177.790058 Z" id="Path" fill="#2196F3"></path>
                <path d="M149.508187,212.098274 C138.632164,212.098274 127.947953,209.230994 118.530994,203.789474 C109.035673,198.297661 101.149708,190.407602 95.6631579,180.909357 C78.4380117,151.074269 88.6602339,112.924561 118.495322,95.6994152 C127.988304,90.2187135 138.75848,87.3362573 149.720468,87.3420858 C184.17076,87.3152047 212.120468,115.221637 212.146804,149.67193 C212.155556,160.638012 209.272515,171.412281 203.789474,180.909357 L203.789474,180.909357 C192.547368,200.236842 171.867251,212.119298 149.508187,212.098274 Z M149.832164,99.8168353 C131.929825,99.7222222 115.355556,109.250292 106.42924,124.769006 C92.6491228,148.663743 100.848538,179.205848 124.743275,192.985965 C148.638012,206.766082 179.180117,198.566667 192.960234,174.67193 L192.960234,174.67193 C206.740351,150.804094 198.562573,120.284211 174.694737,106.503509 C167.138012,102.140936 158.569591,99.8356725 149.844444,99.8181287 L149.832164,99.8181287 L149.832164,99.8168353 Z" id="Shape" fill="#FAFAFA"></path>
            </g>
        </g>
    </g>
</svg>