<?xml version="1.0" encoding="UTF-8"?>
<svg width="300px" height="296px" viewBox="0 0 300 296" version="1.1" xmlns="http://www.w3.org/2000/svg" xmlns:xlink="http://www.w3.org/1999/xlink">
    <title>Internet_Explorer_10+11_logo</title>
    <g id="Page-1" stroke="none" stroke-width="1" fill="none" fill-rule="evenodd">
        <g id="Artboard" transform="translate(-1724.000000, -358.000000)" fill="#1EBBEE" fill-rule="nonzero">
            <g id="Internet_Explorer_10+11_logo" transform="translate(1724.000000, 358.000000)">
                <path d="M298.604651,154.883721 C298.604651,131.162791 292.465116,108.837209 281.860465,89.3023256 C327.906977,-13.9534884 233.023256,1.39534884 227.44186,1.39534884 C207.906977,5.30232558 188.372093,11.5813953 171.627907,19.5348837 C107.44186,18.7674419 51.627907,53.0232558 33.4883721,124.186047 C66.9767442,86.5116279 90.6976744,71.1627907 104.651163,65.5813953 C101.72093,68.2325581 98.7906977,71.0232558 95.8604651,73.8139535 C73.5348837,96.1395349 55.3953488,118.465116 40.0465116,142.186047 C28.1860465,163.116279 14.9302326,181.255814 7.95348837,204.976744 C-29.7209302,341.72093 88.8837209,284.511628 105.627907,274.744186 C123.767442,283.674419 143.302326,288.55814 165.627907,288.55814 C224.232558,288.55814 274.465116,250.883721 292.604651,199.255814 L221.44186,199.255814 C187.953488,252.27907 108.418605,228.55814 105.627907,171.348837 L298.186047,171.348837 C298.911628,165.627907 299.302326,159.906977 299.302326,154.604651 L298.604651,154.883721 Z M273.488372,22.3255814 C285.069767,30.1395349 294.418605,41.8604651 278.372093,83.7209302 C263.023256,58.6046512 240.697674,39.0697674 212.790698,29.3023256 C225.209302,23.3023256 256.046512,11.1627907 274.186047,22.3255814 L273.488372,22.3255814 Z M26.5116279,274.883721 C17.0232558,265.255814 15.3488372,241.395349 36.2790698,198.139535 C46.744186,228.837209 68.372093,253.953488 94.8837209,269.302326 C81.3488372,276.697674 46.0465116,293.023256 26.5116279,273.906977 L26.5116279,274.883721 Z M104.651163,135.348837 C105.725581,104.651163 132.55814,79.5348837 166.046512,79.5348837 C199.534884,79.5348837 226.046512,104.651163 227.44186,135.348837 L106.046512,135.348837 L104.651163,135.348837 Z" id="Shape"></path>
            </g>
        </g>
    </g>
</svg>