<?xml version="1.0" encoding="UTF-8"?>
<svg width="300px" height="297px" viewBox="0 0 300 297" version="1.1" xmlns="http://www.w3.org/2000/svg" xmlns:xlink="http://www.w3.org/1999/xlink">
    <title>logo-firefox-white</title>
    <defs>
        <radialGradient cx="96%" cy="15%" fx="96%" fy="15%" r="90.1771267%" gradientTransform="translate(0.960000,0.150000),scale(0.998036,1.000000),translate(-0.960000,-0.150000)" id="radialGradient-1">
            <stop stop-color="#FFF36E" offset="0%"></stop>
            <stop stop-color="#FC4055" offset="50%"></stop>
            <stop stop-color="#E31587" offset="100%"></stop>
        </radialGradient>
        <radialGradient cx="10%" cy="18%" fx="10%" fy="18%" r="70.1377652%" gradientTransform="translate(0.100000,0.180000),scale(0.998036,1.000000),translate(-0.100000,-0.180000)" id="radialGradient-2">
            <stop stop-color="#C60084" offset="0%"></stop>
            <stop stop-color="#FC4055" stop-opacity="0" offset="100%"></stop>
        </radialGradient>
        <radialGradient cx="110%" cy="8%" fx="110%" fy="8%" r="133.261754%" gradientTransform="translate(1.100000,0.080000),scale(0.998036,1.000000),translate(-1.100000,-0.080000)" id="radialGradient-3">
            <stop stop-color="#FFDE67" stop-opacity="0.6" offset="0%"></stop>
            <stop stop-color="#FC4055" stop-opacity="0" offset="66%"></stop>
        </radialGradient>
        <radialGradient cx="44%" cy="51%" fx="44%" fy="51%" r="175.344413%" gradientTransform="translate(0.440000,0.510000),scale(0.998036,1.000000),translate(-0.440000,-0.510000)" id="radialGradient-4">
            <stop stop-color="#810220" offset="15%"></stop>
            <stop stop-color="#FC4055" stop-opacity="0" offset="27%"></stop>
        </radialGradient>
        <radialGradient cx="53%" cy="55%" fx="53%" fy="55%" r="160.314892%" gradientTransform="translate(0.530000,0.550000),scale(0.998036,1.000000),translate(-0.530000,-0.550000)" id="radialGradient-5">
            <stop stop-color="#810220" offset="12%"></stop>
            <stop stop-color="#FC4055" stop-opacity="0" offset="30%"></stop>
        </radialGradient>
        <radialGradient cx="90%" cy="11%" fx="90%" fy="11%" r="111%" gradientTransform="translate(0.900000,0.110000),scale(1.000000,0.997605),translate(-0.900000,-0.110000)" id="radialGradient-6">
            <stop stop-color="#FF9640" offset="0%"></stop>
            <stop stop-color="#FC4055" offset="80%"></stop>
        </radialGradient>
        <radialGradient cx="91%" cy="18%" fx="91%" fy="18%" r="113%" gradientTransform="translate(0.910000,0.180000),scale(1.000000,0.997605),translate(-0.910000,-0.180000)" id="radialGradient-7">
            <stop stop-color="#FFDE67" offset="9%"></stop>
            <stop stop-color="#FF9640" stop-opacity="0" offset="82%"></stop>
        </radialGradient>
        <radialGradient cx="63%" cy="49%" fx="63%" fy="49%" r="54%" gradientTransform="translate(0.630000,0.490000),scale(1.000000,0.997605),translate(-0.630000,-0.490000)" id="radialGradient-8">
            <stop stop-color="#FC4055" offset="36%"></stop>
            <stop stop-color="#FF9640" stop-opacity="0" offset="59%"></stop>
        </radialGradient>
        <radialGradient cx="53%" cy="52%" fx="53%" fy="52%" r="54%" gradientTransform="translate(0.530000,0.520000),scale(1.000000,0.997605),translate(-0.530000,-0.520000)" id="radialGradient-9">
            <stop stop-color="#FC4055" stop-opacity="0.8" offset="22%"></stop>
            <stop stop-color="#FF9640" stop-opacity="0" offset="47%"></stop>
        </radialGradient>
        <radialGradient cx="109%" cy="2%" fx="109%" fy="2%" r="170%" gradientTransform="translate(1.090000,0.020000),scale(1.000000,0.980167),translate(-1.090000,-0.020000)" id="radialGradient-10">
            <stop stop-color="#FFF36E" offset="5%"></stop>
            <stop stop-color="#FF9640" offset="55%"></stop>
            <stop stop-color="#FF9640" offset="70%"></stop>
        </radialGradient>
        <linearGradient x1="50%" y1="-3%" x2="79%" y2="79%" id="linearGradient-11">
            <stop stop-color="#B833E1" offset="0%"></stop>
            <stop stop-color="#9059FF" offset="37%"></stop>
            <stop stop-color="#0090ED" offset="100%"></stop>
        </linearGradient>
        <linearGradient x1="85%" y1="51%" x2="32%" y2="-10%" id="linearGradient-12">
            <stop stop-color="#592ACB" stop-opacity="0.5" offset="0%"></stop>
            <stop stop-color="#722291" stop-opacity="0" offset="24%"></stop>
        </linearGradient>
        <linearGradient x1="75%" y1="9%" x2="21%" y2="99%" id="linearGradient-13">
            <stop stop-color="#FFF36E" stop-opacity="0.8" offset="0%"></stop>
            <stop stop-color="#FFF36E" stop-opacity="0.7" offset="9%"></stop>
            <stop stop-color="#FFF36E" stop-opacity="0" offset="75%"></stop>
        </linearGradient>
    </defs>
    <g id="Page-1" stroke="none" stroke-width="1" fill="none" fill-rule="evenodd">
        <g id="Artboard" transform="translate(-882.000000, -362.000000)" fill-rule="nonzero">
            <g id="logo-firefox-white" transform="translate(882.000000, 362.000000)">
                <path d="M270.162963,58.1481481 C243.44894,22.7168941 202.087729,1.33730659 157.733333,0.0333333333 C123.333333,-0.655555556 99.5703704,9.68148148 86.1259259,17.9925926 C104.114815,7.55925926 130.148148,1.64074074 152.940741,1.93333333 C211.57037,2.67407407 274.540741,42.6037037 283.892593,114.574074 C294.633333,197.188889 237.088889,266.140741 156.140741,266.351852 C67.0851852,266.577778 12.9185185,187.725926 27.0777778,116.9 C27.3410837,113.427211 27.8522625,109.977682 28.6074074,106.577778 C30.3545392,88.4256191 35.6298133,70.7893701 44.137037,54.6592593 C33.8814815,59.9666667 20.8222222,76.7518519 14.3777778,92.3 C4.99669393,116.022346 1.68919548,141.712111 4.75555556,167.037037 C4.97777778,168.955556 5.17777778,170.87037 5.42962963,172.774074 C15.9471408,233.335363 62.7167182,281.141471 123.032948,292.983775 C183.349179,304.826079 244.722262,278.252371 277.357162,226.163494 C309.992062,174.074617 307.131006,107.256718 270.162963,58.1481481 Z" id="Path" fill="url(#radialGradient-1)"></path>
                <path d="M270.162963,58.1481481 C243.44894,22.7168941 202.087729,1.33730659 157.733333,0.0333333333 C123.333333,-0.655555556 99.5703704,9.68148148 86.1259259,17.9925926 C104.114815,7.55925926 130.148148,1.64074074 152.940741,1.93333333 C211.57037,2.67407407 274.540741,42.6037037 283.892593,114.574074 C294.633333,197.188889 237.088889,266.140741 156.140741,266.351852 C67.0851852,266.577778 12.9185185,187.725926 27.0777778,116.9 C27.3410837,113.427211 27.8522625,109.977682 28.6074074,106.577778 C30.3545392,88.4256191 35.6298133,70.7893701 44.137037,54.6592593 C33.8814815,59.9666667 20.8222222,76.7518519 14.3777778,92.3 C4.99669393,116.022346 1.68919548,141.712111 4.75555556,167.037037 C4.97777778,168.955556 5.17777778,170.87037 5.42962963,172.774074 C15.9471408,233.335363 62.7167182,281.141471 123.032948,292.983775 C183.349179,304.826079 244.722262,278.252371 277.357162,226.163494 C309.992062,174.074617 307.131006,107.256718 270.162963,58.1481481 Z" id="Path" fill="url(#radialGradient-2)" opacity="0.67"></path>
                <path d="M270.162963,58.1481481 C243.44894,22.7168941 202.087729,1.33730659 157.733333,0.0333333333 C123.333333,-0.655555556 99.5703704,9.68148148 86.1259259,17.9925926 C104.114815,7.55925926 130.148148,1.64074074 152.940741,1.93333333 C211.57037,2.67407407 274.540741,42.6037037 283.892593,114.574074 C294.633333,197.188889 237.088889,266.140741 156.140741,266.351852 C67.0851852,266.577778 12.9185185,187.725926 27.0777778,116.9 C27.3410837,113.427211 27.8522625,109.977682 28.6074074,106.577778 C30.3545392,88.4256191 35.6298133,70.7893701 44.137037,54.6592593 C33.8814815,59.9666667 20.8222222,76.7518519 14.3777778,92.3 C4.99669393,116.022346 1.68919548,141.712111 4.75555556,167.037037 C4.97777778,168.955556 5.17777778,170.87037 5.42962963,172.774074 C15.9471408,233.335363 62.7167182,281.141471 123.032948,292.983775 C183.349179,304.826079 244.722262,278.252371 277.357162,226.163494 C309.992062,174.074617 307.131006,107.256718 270.162963,58.1481481 Z" id="Path" fill="url(#radialGradient-3)"></path>
                <path d="M270.162963,58.1481481 C243.44894,22.7168941 202.087729,1.33730659 157.733333,0.0333333333 C123.333333,-0.655555556 99.5703704,9.68148148 86.1259259,17.9925926 C104.114815,7.55925926 130.148148,1.64074074 152.940741,1.93333333 C211.57037,2.67407407 274.540741,42.6037037 283.892593,114.574074 C294.633333,197.188889 237.088889,266.140741 156.140741,266.351852 C67.0851852,266.577778 12.9185185,187.725926 27.0777778,116.9 C27.3410837,113.427211 27.8522625,109.977682 28.6074074,106.577778 C30.3545392,88.4256191 35.6298133,70.7893701 44.137037,54.6592593 C33.8814815,59.9666667 20.8222222,76.7518519 14.3777778,92.3 C4.99669393,116.022346 1.68919548,141.712111 4.75555556,167.037037 C4.97777778,168.955556 5.17777778,170.87037 5.42962963,172.774074 C15.9471408,233.335363 62.7167182,281.141471 123.032948,292.983775 C183.349179,304.826079 244.722262,278.252371 277.357162,226.163494 C309.992062,174.074617 307.131006,107.256718 270.162963,58.1481481 Z" id="Path" fill="url(#radialGradient-4)"></path>
                <path d="M270.162963,58.1481481 C243.44894,22.7168941 202.087729,1.33730659 157.733333,0.0333333333 C123.333333,-0.655555556 99.5703704,9.68148148 86.1259259,17.9925926 C104.114815,7.55925926 130.148148,1.64074074 152.940741,1.93333333 C211.57037,2.67407407 274.540741,42.6037037 283.892593,114.574074 C294.633333,197.188889 237.088889,266.140741 156.140741,266.351852 C67.0851852,266.577778 12.9185185,187.725926 27.0777778,116.9 C27.3410837,113.427211 27.8522625,109.977682 28.6074074,106.577778 C30.3545392,88.4256191 35.6298133,70.7893701 44.137037,54.6592593 C33.8814815,59.9666667 20.8222222,76.7518519 14.3777778,92.3 C4.99669393,116.022346 1.68919548,141.712111 4.75555556,167.037037 C4.97777778,168.955556 5.17777778,170.87037 5.42962963,172.774074 C15.9471408,233.335363 62.7167182,281.141471 123.032948,292.983775 C183.349179,304.826079 244.722262,278.252371 277.357162,226.163494 C309.992062,174.074617 307.131006,107.256718 270.162963,58.1481481 Z" id="Path" fill="url(#radialGradient-5)"></path>
                <path d="M287.5,110.466667 C279.162963,35.2518519 212.085185,1.44444444 152.940741,1.93333333 C130.144444,2.11851852 104.114815,7.55925926 86.1259259,17.9925926 C81.3658541,20.8151152 76.9423485,24.1700211 72.9407407,27.9925926 C73.4185185,27.5962963 74.8444444,26.4222222 77.2074074,24.8 L77.4407407,24.6407407 L77.6481481,24.5 C86.3775378,18.5979663 95.9955484,14.1315682 106.137037,11.2703704 C122.024189,6.87901651 138.491142,4.95164722 154.962963,5.55555556 C218.307963,9.33828352 268.410211,60.6317624 270.703704,124.048148 C272.062963,172.962963 232.02963,211.962963 185.881481,214.222222 C152.318519,215.866667 120.696296,199.625926 105.251852,167.137037 C101.638834,159.737742 99.185457,151.826724 97.9777778,143.681481 C90.6592593,94.237037 123.862963,52.0703704 154.311111,41.6296296 C137.885185,27.2814815 96.7259259,28.2555556 66.0925926,50.7925926 C44.0333333,67.0222222 29.7222222,91.7148148 24.9814815,121.162963 C21.5707965,143.75831 24.5736721,166.857353 33.6481481,187.82963 C52.8686722,233.181533 95.9473544,263.881662 145.088889,267.248148 C148.765432,267.52963 152.449383,267.666699 156.140741,267.666699 C254.148148,267.666699 296.666667,193.27037 287.5,110.466667 L287.5,110.466667 Z" id="Path" fill="url(#radialGradient-6)"></path>
                <path d="M287.5,110.466667 C279.162963,35.2518519 212.085185,1.44444444 152.940741,1.93333333 C130.144444,2.11851852 104.114815,7.55925926 86.1259259,17.9925926 C81.3658541,20.8151152 76.9423485,24.1700211 72.9407407,27.9925926 C73.4185185,27.5962963 74.8444444,26.4222222 77.2074074,24.8 L77.4407407,24.6407407 L77.6481481,24.5 C86.3775378,18.5979663 95.9955484,14.1315682 106.137037,11.2703704 C122.024189,6.87901651 138.491142,4.95164722 154.962963,5.55555556 C218.307963,9.33828352 268.410211,60.6317624 270.703704,124.048148 C272.062963,172.962963 232.02963,211.962963 185.881481,214.222222 C152.318519,215.866667 120.696296,199.625926 105.251852,167.137037 C101.638834,159.737742 99.185457,151.826724 97.9777778,143.681481 C90.6592593,94.237037 123.862963,52.0703704 154.311111,41.6296296 C137.885185,27.2814815 96.7259259,28.2555556 66.0925926,50.7925926 C44.0333333,67.0222222 29.7222222,91.7148148 24.9814815,121.162963 C21.5707965,143.75831 24.5736721,166.857353 33.6481481,187.82963 C52.8686722,233.181533 95.9473544,263.881662 145.088889,267.248148 C148.765432,267.52963 152.449383,267.666699 156.140741,267.666699 C254.148148,267.666699 296.666667,193.27037 287.5,110.466667 L287.5,110.466667 Z" id="Path" fill="url(#radialGradient-7)"></path>
                <path d="M287.5,110.466667 C279.162963,35.2518519 212.085185,1.44444444 152.940741,1.93333333 C130.144444,2.11851852 104.114815,7.55925926 86.1259259,17.9925926 C81.3658541,20.8151152 76.9423485,24.1700211 72.9407407,27.9925926 C73.4185185,27.5962963 74.8444444,26.4222222 77.2074074,24.8 L77.4407407,24.6407407 L77.6481481,24.5 C86.3775378,18.5979663 95.9955484,14.1315682 106.137037,11.2703704 C122.024189,6.87901651 138.491142,4.95164722 154.962963,5.55555556 C218.307963,9.33828352 268.410211,60.6317624 270.703704,124.048148 C272.062963,172.962963 232.02963,211.962963 185.881481,214.222222 C152.318519,215.866667 120.696296,199.625926 105.251852,167.137037 C101.638834,159.737742 99.185457,151.826724 97.9777778,143.681481 C90.6592593,94.237037 123.862963,52.0703704 154.311111,41.6296296 C137.885185,27.2814815 96.7259259,28.2555556 66.0925926,50.7925926 C44.0333333,67.0222222 29.7222222,91.7148148 24.9814815,121.162963 C21.5707965,143.75831 24.5736721,166.857353 33.6481481,187.82963 C52.8686722,233.181533 95.9473544,263.881662 145.088889,267.248148 C148.765432,267.52963 152.449383,267.666699 156.140741,267.666699 C254.148148,267.666699 296.666667,193.27037 287.5,110.466667 L287.5,110.466667 Z" id="Path" fill="url(#radialGradient-8)" opacity="0.53"></path>
                <path d="M287.5,110.466667 C279.162963,35.2518519 212.085185,1.44444444 152.940741,1.93333333 C130.144444,2.11851852 104.114815,7.55925926 86.1259259,17.9925926 C81.3658541,20.8151152 76.9423485,24.1700211 72.9407407,27.9925926 C73.4185185,27.5962963 74.8444444,26.4222222 77.2074074,24.8 L77.4407407,24.6407407 L77.6481481,24.5 C86.3775378,18.5979663 95.9955484,14.1315682 106.137037,11.2703704 C122.024189,6.87901651 138.491142,4.95164722 154.962963,5.55555556 C218.307963,9.33828352 268.410211,60.6317624 270.703704,124.048148 C272.062963,172.962963 232.02963,211.962963 185.881481,214.222222 C152.318519,215.866667 120.696296,199.625926 105.251852,167.137037 C101.638834,159.737742 99.185457,151.826724 97.9777778,143.681481 C90.6592593,94.237037 123.862963,52.0703704 154.311111,41.6296296 C137.885185,27.2814815 96.7259259,28.2555556 66.0925926,50.7925926 C44.0333333,67.0222222 29.7222222,91.7148148 24.9814815,121.162963 C21.5707965,143.75831 24.5736721,166.857353 33.6481481,187.82963 C52.8686722,233.181533 95.9473544,263.881662 145.088889,267.248148 C148.765432,267.52963 152.449383,267.666699 156.140741,267.666699 C254.148148,267.666699 296.666667,193.27037 287.5,110.466667 L287.5,110.466667 Z" id="Path" fill="url(#radialGradient-9)" opacity="0.53"></path>
                <path d="M185.881481,214.222222 C249.214815,210.37037 276.325926,157.925926 278.025926,120.722222 C280.677778,62.5925926 246.192593,-0.0740740741 154.962963,5.55555556 C138.490571,4.95526205 122.023608,6.88637986 106.137037,11.2814815 C96.0409716,14.2641178 86.4410093,18.7221346 77.6481481,24.5111111 L77.4407407,24.6518519 L77.2074074,24.8111111 C75.7901235,25.7987654 74.4037037,26.8382716 73.0481481,27.9296296 C96.6620534,14.7252947 123.94637,9.6058271 150.740741,13.3518519 C203.118519,20.2259259 251.007407,60.9703704 251.007407,114.733333 C251.007407,156.1 219.040741,187.696296 181.607407,185.425926 C125.996296,182.092593 111.977778,125.055556 140.907407,100.411111 C133.107407,98.7333333 118.448148,102.022222 108.240741,117.281481 C99.0814815,130.985185 99.6,152.133333 105.251852,167.137037 C119.678003,198.112092 151.81525,216.879241 185.881481,214.222222 Z" id="Path" fill="url(#radialGradient-10)"></path>
                <path d="M270.42963,69.3555556 C266.621119,58.1274503 260.456187,47.8433034 252.348148,39.1925926 C242.713254,29.1527903 231.290922,20.997391 218.666667,15.1444444 C208.127202,9.94928003 197.014038,6.00994946 185.555556,3.40740741 C165.356847,-1.01394799 144.45432,-1.14013288 124.203704,3.03703704 C103.155556,7.48148148 84.6481481,16.5888889 72.9407407,27.9740741 C82.2757809,22.7003114 92.2813119,18.7135477 102.685185,16.1222222 C143.768068,5.79840868 187.280334,17.1046464 218.140741,46.1222222 C224.295817,51.9591948 229.683493,58.5553325 234.174074,65.7518519 C252.303704,95.2296296 250.588889,132.288889 236.451852,154.144444 C225.951852,170.381481 203.462963,185.625926 182.481481,185.448148 C214.65698,187.876676 245.558486,172.403149 262.888889,145.185185 C277.662963,122.133333 278.166667,92.7962963 270.42963,69.3555556 Z" id="Path" fill="url(#linearGradient-11)"></path>
                <path d="M270.42963,69.3555556 C266.621119,58.1274503 260.456187,47.8433034 252.348148,39.1925926 C242.713254,29.1527903 231.290922,20.997391 218.666667,15.1444444 C208.127202,9.94928003 197.014038,6.00994946 185.555556,3.40740741 C165.356847,-1.01394799 144.45432,-1.14013288 124.203704,3.03703704 C103.155556,7.48148148 84.6481481,16.5888889 72.9407407,27.9740741 C82.2757809,22.7003114 92.2813119,18.7135477 102.685185,16.1222222 C143.768068,5.79840868 187.280334,17.1046464 218.140741,46.1222222 C224.295817,51.9591948 229.683493,58.5553325 234.174074,65.7518519 C252.303704,95.2296296 250.588889,132.288889 236.451852,154.144444 C225.951852,170.381481 203.462963,185.625926 182.481481,185.448148 C214.65698,187.876676 245.558486,172.403149 262.888889,145.185185 C277.662963,122.133333 278.166667,92.7962963 270.42963,69.3555556 Z" id="Path" fill="url(#linearGradient-12)"></path>
                <path d="M270.162963,58.1481481 C266.194669,52.9526457 261.886466,48.0258036 257.266667,43.4 C253.598309,39.5213773 249.666754,35.9004362 245.5,32.562963 C247.89778,34.6508011 250.183676,36.8637566 252.348148,39.1925926 C260.455454,47.8438566 266.620286,58.1278361 270.42963,69.3555556 C278.166667,92.7962963 277.662963,122.133333 262.888889,145.174074 C246.193543,171.451114 216.753025,186.831333 185.648148,185.525926 C184.311111,185.525926 182.962963,185.525926 181.607407,185.425926 C125.996296,182.092593 111.977778,125.055556 140.911111,100.411111 C133.107407,98.7333333 118.448148,102.022222 108.240741,117.281481 C99.0814815,130.985185 99.6,152.133333 105.251852,167.137037 C101.64006,159.737553 99.1879316,151.826535 97.9814815,143.681481 C90.6592593,94.237037 123.862963,52.0703704 154.311111,41.6296296 C137.885185,27.2814815 96.7259259,28.2555556 66.0925926,50.7925926 C48.0754884,64.2605458 34.9558796,83.2499665 28.7333333,104.866667 C30.7164621,87.3253234 35.9395627,70.3047216 44.137037,54.6703704 C33.8814815,59.9777778 20.8222222,76.762963 14.3777778,92.3111111 C4.99854301,116.030049 1.69107475,141.715761 4.75555556,167.037037 C4.97777778,168.955556 5.17777778,170.87037 5.42962963,172.774074 C15.9471408,233.335363 62.7167182,281.141471 123.032948,292.983775 C183.349179,304.826079 244.722262,278.252371 277.357162,226.163494 C309.992062,174.074617 307.131006,107.256718 270.162963,58.1481481 L270.162963,58.1481481 Z" id="Path" fill="url(#linearGradient-13)"></path>
            </g>
        </g>
    </g>
</svg>