<?xml version="1.0" encoding="UTF-8"?>
<svg width="300px" height="300px" viewBox="0 0 300 300" version="1.1" xmlns="http://www.w3.org/2000/svg" xmlns:xlink="http://www.w3.org/1999/xlink">
    <title>safari</title>
    <defs>
        <linearGradient x1="50.016%" y1="0.0096%" x2="50.016%" y2="100.0032%" id="linearGradient-1">
            <stop stop-color="#19D7FF" offset="0%"></stop>
            <stop stop-color="#1E64F0" offset="100%"></stop>
        </linearGradient>
    </defs>
    <g id="Page-1" stroke="none" stroke-width="1" fill="none" fill-rule="evenodd">
        <g id="Artboard" transform="translate(-2189.000000, -373.000000)">
            <g id="safari" transform="translate(2189.000000, 373.000000)">
                <circle id="Oval" fill="url(#linearGradient-1)" fill-rule="nonzero" cx="150" cy="150" r="148.809524"></circle>
                <path d="M150,15.7142857 L150,37.6190476 M150,261.666667 L150,283.571429 M173.333333,17.8571429 L169.52381,39.5238095 M130.47619,259.761905 L126.666667,281.428571 M195.714286,23.8095238 L188.333333,44.5238095 M111.666667,254.761905 L104.285714,275.47619 M126.666667,17.8571429 L130.47619,39.5238095 M169.52381,259.761905 L173.333333,281.428571 M104.285714,23.8095238 L111.666667,44.5238095 M188.333333,254.761905 L195.714286,275.47619 M83.0952381,33.8095238 L94.047619,52.8571429 M205.952381,246.666667 L216.904762,265.47619 M64.047619,47.1428571 L78.0952381,63.8095238 M221.904762,235.47619 L235.952381,252.142857 M47.3809524,63.5714286 L64.2857143,77.6190476 M235.714286,221.666667 L252.619048,235.714286 M34.047619,82.8571429 L53.0952381,93.8095238 M246.904762,205.714286 L265.952381,216.666667 M24.2857143,103.809524 L44.7619048,111.428571 M255.238095,187.857143 L275.714286,195.47619 M18.0952381,126.428571 L39.7619048,130.238095 M260.238095,169.047619 L281.904762,172.857143 M16.1904762,149.761905 L38.0952381,149.761905 M261.904762,149.761905 L283.809524,149.761905 M18.0952381,172.857143 L39.7619048,169.047619 M260.238095,130.238095 L281.904762,126.428571 M24.2857143,195.47619 L44.7619048,187.857143 M255.238095,111.428571 L275.714286,103.809524 M34.047619,216.666667 L53.0952381,205.714286 M246.904762,93.8095238 L265.952381,82.8571429 M47.3809524,235.714286 L64.2857143,221.666667 M235.714286,77.6190476 L252.619048,63.5714286 M64.047619,252.142857 L78.0952381,235.47619 M221.904762,63.8095238 L235.952381,47.1428571 M83.0952381,265.47619 L94.047619,246.666667 M205.952381,52.8571429 L216.904762,33.8095238 M138.333333,16.4285714 L139.285714,28.3333333 M160.714286,271.190476 L161.666667,283.095238 M115.238095,20.4761905 L118.333333,31.9047619 M181.666667,267.380952 L184.761905,279.047619 M93.3333333,28.3333333 L98.3333333,39.2857143 M201.428571,260.238095 L206.666667,270.952381 M73.0952381,40 L80,49.7619048 M220,249.52381 L226.904762,259.285714 M55.2380952,55 L63.8095238,63.3333333 M236.190476,235.952381 L244.761905,244.285714 M40.2380952,72.8571429 L50.2380952,79.7619048 M249.761905,219.52381 L259.761905,226.428571 M28.8095238,93.0952381 L39.5238095,98.0952381 M260.47619,201.190476 L271.190476,206.190476 M20.7142857,115 L32.3809524,118.095238 M267.619048,181.190476 L279.285714,184.285714 M16.6666667,137.857143 L28.5714286,139.047619 M271.428571,160.238095 L283.333333,161.428571 M16.6666667,161.428571 L28.5714286,160.238095 M271.428571,139.047619 L283.333333,137.857143 M20.7142857,184.285714 L32.3809524,181.190476 M267.619048,118.095238 L279.285714,115 M28.8095238,206.190476 L39.5238095,201.190476 M260.47619,98.0952381 L271.190476,93.0952381 M40.2380952,226.428571 L50.2380952,219.52381 M249.761905,79.7619048 L259.761905,72.8571429 M73.0952381,259.285714 L80,249.52381 M220,49.7619048 L226.904762,40 M93.3333333,270.952381 L98.5714286,260.238095 M201.428571,39.2857143 L206.666667,28.3333333 M115.238095,279.047619 L118.333333,267.380952 M181.666667,31.9047619 L184.761905,20.4761905 M138.333333,283.095238 L139.285714,271.190476 M160.714286,28.3333333 L161.666667,16.4285714" id="Shape" stroke="#FFFFFF"></path>
                <polygon id="Path" fill="#FF0000" fill-rule="nonzero" points="251.666667 47.6190476 137.380952 137.380952 149.761905 149.761905"></polygon>
                <polygon id="Path" fill="#D01414" fill-rule="nonzero" points="149.761905 149.761905 164.047619 164.047619 251.666667 47.6190476"></polygon>
                <polygon id="Path" fill="#FFFFFF" fill-rule="nonzero" points="137.380952 137.380952 47.6190476 251.666667 149.761905 149.761905"></polygon>
                <polygon id="Path" fill="#ACACAC" fill-rule="nonzero" points="47.6190476 251.666667 164.047619 164.047619 149.761905 149.761905"></polygon>
            </g>
        </g>
    </g>
</svg>